<svg xmlns="http://www.w3.org/2000/svg" width="1280" height="520" viewBox="0 0 1280 520" role="img" aria-label="Gangadhara Gooti, full-stack engineer. An X-ray lens sweeps across the name."><title>Gangadhara Gooti, full-stack engineer. An X-ray lens sweeps across the name.</title><style>svg{--card:#05080D;--stroke:#15202B;--text:#D7E3EA;--soft:#8593A1;--accent:#6FE6FF;--lens:#010306;--rule:#2A3947}</style><defs><clipPath id="hero-dark-card"><rect width="1280" height="520" rx="24"/></clipPath><clipPath id="hero-dark-lens"><circle cx="150" cy="180" r="0"><animate attributeName="cx" dur="11.0s" repeatCount="indefinite" calcMode="spline" keyTimes="0.0000;0.0545;0.2909;0.4182;0.5455;0.6727;0.8545;0.9273;1.0000" values="150;150;1110;330;330;905;905;905;150" keySplines="0.45 0 0.25 1;0.45 0 0.25 1;0.45 0 0.25 1;0.45 0 0.25 1;0.45 0 0.25 1;0.45 0 0.25 1;0.45 0 0.25 1;0.45 0 0.25 1"/><animate attributeName="cy" dur="11.0s" repeatCount="indefinite" calcMode="spline" keyTimes="0.0000;0.0545;0.2909;0.4182;0.5455;0.6727;0.8545;0.9273;1.0000" values="180;180;180;290;290;300;300;300;180" keySplines="0.45 0 0.25 1;0.45 0 0.25 1;0.45 0 0.25 1;0.45 0 0.25 1;0.45 0 0.25 1;0.45 0 0.25 1;0.45 0 0.25 1;0.45 0 0.25 1"/><animate attributeName="r" dur="11.0s" repeatCount="indefinite" calcMode="spline" keyTimes="0.0000;0.0545;0.2909;0.4182;0.5455;0.6727;0.8545;0.9273;1.0000" values="0;92;92;92;92;118;118;0;0" keySplines="0.45 0 0.25 1;0.45 0 0.25 1;0.45 0 0.25 1;0.45 0 0.25 1;0.45 0 0.25 1;0.45 0 0.25 1;0.45 0 0.25 1;0.45 0 0.25 1"/></circle></clipPath><pattern id="hero-dark-grid" width="32" height="32" patternUnits="userSpaceOnUse"><path d="M32 0H0V32" fill="none" stroke="#6FE6FF" stroke-opacity=".09"/></pattern><pattern id="hero-dark-scan" width="4" height="4" patternUnits="userSpaceOnUse"><rect width="4" height="1" fill="#000" fill-opacity=".35"/></pattern><filter id="hero-dark-glow" x="-50%" y="-50%" width="200%" height="200%"><feGaussianBlur stdDeviation="7"/></filter></defs><g clip-path="url(#hero-dark-card)"><rect width="1280" height="520" style="fill:var(--card)"/><circle cx="70" cy="66" r="7" fill="#FF9E4A"/><circle cx="70" cy="66" r="7" fill="none" stroke="#FF9E4A" stroke-width="2"><animate attributeName="r" values="7;18" dur="2.4s" repeatCount="indefinite"/><animate attributeName="stroke-opacity" values=".6;0" dur="2.4s" repeatCount="indefinite"/></circle><path d="M96.3 74.2Q94.9 74.2 93.8 73.7Q92.8 73.1 92.2 72.1Q91.7 71.1 91.7 69.7V62.9Q91.7 61.5 92.2 60.5Q92.8 59.5 93.8 59Q94.9 58.5 96.3 58.5Q97.7 58.5 98.8 59Q99.8 59.5 100.4 60.5Q100.9 61.5 100.9 62.9V69.7Q100.9 71.1 100.4 72.1Q99.8 73.1 98.8 73.7Q97.7 74.2 96.3 74.2ZM96.3 72.2Q97.5 72.2 98.1 71.6Q98.7 70.9 98.7 69.7V62.9Q98.7 61.7 98.1 61.1Q97.5 60.5 96.3 60.5Q95.2 60.5 94.6 61.1Q93.9 61.7 93.9 62.9V69.7Q93.9 70.9 94.6 71.6Q95.2 72.2 96.3 72.2ZM105.2 74V58.7H110.2Q111.7 58.7 112.8 59.2Q113.9 59.8 114.5 60.8Q115.1 61.9 115.1 63.3Q115.1 64.7 114.5 65.7Q113.9 66.8 112.8 67.3Q111.7 67.9 110.2 67.9H107.5V74ZM107.5 65.9H110.2Q111.4 65.9 112.1 65.2Q112.8 64.5 112.8 63.3Q112.8 62.1 112.1 61.4Q111.4 60.7 110.2 60.7H107.5ZM118.9 74V58.7H127.9V60.7H121.1V65H127.1V67H121.1V72H127.9V74ZM132 74V58.7H134.9L139.3 71.4Q139.3 70.8 139.2 70Q139.2 69.1 139.2 68.2Q139.1 67.3 139.1 66.6V58.7H141.2V74H138.4L133.9 61.3Q134 61.8 134 62.6Q134.1 63.4 134.1 64.3Q134.1 65.2 134.1 66V74ZM162.4 74V60.7H158.3V58.6H168.7V60.7H164.6V74ZM176.9 74.2Q175.5 74.2 174.5 73.7Q173.4 73.1 172.9 72.1Q172.3 71.1 172.3 69.7V62.9Q172.3 61.5 172.9 60.5Q173.4 59.5 174.5 59Q175.5 58.5 176.9 58.5Q178.4 58.5 179.4 59Q180.4 59.5 181 60.5Q181.6 61.5 181.6 62.9V69.7Q181.6 71.1 181 72.1Q180.4 73.1 179.4 73.7Q178.4 74.2 176.9 74.2ZM176.9 72.2Q178.1 72.2 178.7 71.6Q179.3 70.9 179.3 69.7V62.9Q179.3 61.7 178.7 61.1Q178.1 60.5 176.9 60.5Q175.8 60.5 175.2 61.1Q174.6 61.7 174.6 62.9V69.7Q174.6 70.9 175.2 71.6Q175.8 72.2 176.9 72.2ZM199.4 74V58.6H208.6V60.7H201.6V65.3H208.1V67.4H201.6V74ZM217.3 74.2Q215.1 74.2 213.9 73Q212.7 71.8 212.7 69.7V58.7H214.9V69.7Q214.9 70.9 215.5 71.5Q216.1 72.2 217.3 72.2Q218.4 72.2 219 71.5Q219.6 70.9 219.6 69.7V58.7H221.9V69.7Q221.9 71.8 220.7 73Q219.5 74.2 217.3 74.2ZM226.7 74V58.7H229V71.9H235.7V74ZM240.1 74V58.7H242.4V71.9H249.1V74ZM254.2 68.1V66H260.9V68.1ZM269.9 74V60.7H265.8V58.6H276.2V60.7H272.2V74ZM280.2 74V72H283.3V60.7H280.2V58.7H288.7V60.7H285.6V72H288.7V74ZM293 74V58.7H295.8L297.3 63.6Q297.5 64.3 297.7 64.9Q297.9 65.6 297.9 65.9Q298 65.6 298.2 64.9Q298.3 64.3 298.6 63.6L300 58.7H302.8V74H300.7V68.8Q300.7 67.8 300.7 66.6Q300.8 65.4 300.9 64.2Q301 63 301.1 61.9Q301.2 60.7 301.3 59.9L299 67.3H296.8L294.5 59.9Q294.6 60.7 294.7 61.8Q294.8 62.9 294.9 64.1Q295 65.3 295.1 66.5Q295.1 67.8 295.1 68.8V74ZM307 74V58.7H316V60.7H309.2V65H315.3V67H309.2V72H316V74ZM333.7 74V58.7H338.5Q339.9 58.7 341 59.2Q342.1 59.8 342.7 60.8Q343.3 61.8 343.3 63.2Q343.3 64.7 342.5 65.8Q341.7 66.9 340.4 67.4L343.5 74H340.9L338.1 67.7H336V74ZM336 65.7H338.5Q339.6 65.7 340.3 65Q341 64.3 341 63.2Q341 62 340.3 61.4Q339.6 60.7 338.5 60.7H336ZM351.7 74.2Q350.2 74.2 349.2 73.7Q348.2 73.1 347.6 72.1Q347 71.1 347 69.7V62.9Q347 61.5 347.6 60.5Q348.2 59.5 349.2 59Q350.2 58.5 351.7 58.5Q353.1 58.5 354.1 59Q355.2 59.5 355.7 60.5Q356.3 61.5 356.3 62.9V69.7Q356.3 71.1 355.7 72.1Q355.2 73.1 354.1 73.7Q353.1 74.2 351.7 74.2ZM351.7 72.2Q352.8 72.2 353.4 71.6Q354 70.9 354 69.7V62.9Q354 61.7 353.4 61.1Q352.8 60.5 351.7 60.5Q350.5 60.5 349.9 61.1Q349.3 61.7 349.3 62.9V69.7Q349.3 70.9 349.9 71.6Q350.5 72.2 351.7 72.2ZM361.1 74V58.7H363.4V71.9H370.1V74ZM374.2 74V58.7H383.2V60.7H376.4V65H382.5V67H376.4V72H383.2V74ZM392 74.2Q390.5 74.2 389.4 73.7Q388.3 73.2 387.7 72.2Q387 71.3 387 69.9H389.3Q389.3 71 390 71.6Q390.8 72.2 392.1 72.2Q393.3 72.2 394 71.6Q394.7 71 394.7 70Q394.7 69.1 394.2 68.5Q393.7 67.9 392.8 67.6L390.9 67.1Q389.2 66.6 388.3 65.4Q387.4 64.3 387.4 62.6Q387.4 61.4 388 60.4Q388.5 59.5 389.6 59Q390.6 58.4 392.1 58.4Q394.2 58.4 395.4 59.6Q396.7 60.7 396.7 62.6H394.5Q394.5 61.6 393.8 61Q393.2 60.5 392 60.5Q390.9 60.5 390.3 61Q389.6 61.5 389.6 62.5Q389.6 63.4 390.1 64Q390.6 64.6 391.5 64.9L393.4 65.5Q395.1 65.9 396 67.1Q396.9 68.3 396.9 69.9Q396.9 71.2 396.3 72.2Q395.7 73.1 394.6 73.7Q393.5 74.2 392 74.2Z" style="fill:var(--text)"/><path d="M426 68.6Q425.2 68.6 424.7 68.1Q424.2 67.6 424.2 66.8Q424.2 65.9 424.7 65.4Q425.2 64.9 426 64.9Q426.9 64.9 427.4 65.4Q427.9 65.9 427.9 66.8Q427.9 67.6 427.4 68.1Q426.9 68.6 426 68.6ZM461.8 74V58.7H466.8Q468.3 58.7 469.4 59.2Q470.5 59.8 471.1 60.8Q471.7 61.9 471.7 63.3Q471.7 64.7 471.1 65.7Q470.5 66.8 469.4 67.3Q468.3 67.9 466.8 67.9H464.1V74ZM464.1 65.9H466.8Q468 65.9 468.7 65.2Q469.4 64.5 469.4 63.3Q469.4 62.1 468.7 61.4Q468 60.7 466.8 60.7H464.1ZM479.8 74.2Q477.6 74.2 476.4 73Q475.2 71.8 475.2 69.7V58.7H477.4V69.7Q477.4 70.9 478 71.5Q478.6 72.2 479.8 72.2Q480.9 72.2 481.5 71.5Q482.1 70.9 482.1 69.7V58.7H484.4V69.7Q484.4 71.8 483.2 73Q482 74.2 479.8 74.2ZM489.2 74V58.7H491.5V71.9H498.2V74ZM502.4 74V72H505.5V60.7H502.4V58.7H510.9V60.7H507.8V72H510.9V74ZM518.6 74 514.7 58.7H517L519.5 68.9Q519.7 69.8 519.9 70.7Q520.1 71.6 520.2 72.1Q520.2 71.6 520.4 70.7Q520.6 69.8 520.8 68.9L523.2 58.7H525.5L521.6 74ZM529.2 74V58.7H538.2V60.7H531.4V65H537.5V67H531.4V72H538.2V74ZM542.4 74V58.7H545.2L549.7 71.4Q549.7 70.8 549.6 70Q549.5 69.1 549.5 68.2Q549.5 67.3 549.5 66.6V58.7H551.6V74H548.7L544.3 61.3Q544.3 61.8 544.4 62.6Q544.4 63.4 544.4 64.3Q544.5 65.2 544.5 66V74ZM555.9 74V58.7H560.1Q561.7 58.7 562.8 59.2Q563.9 59.8 564.5 60.9Q565.1 61.9 565.1 63.4V69.3Q565.1 70.7 564.5 71.8Q563.9 72.8 562.8 73.4Q561.7 74 560.1 74ZM558.1 71.9H560.1Q561.4 71.9 562.1 71.2Q562.9 70.5 562.9 69.3V63.4Q562.9 62.1 562.1 61.4Q561.4 60.7 560.1 60.7H558.1ZM573.9 74.2Q571.7 74.2 570.5 73Q569.3 71.8 569.3 69.7V58.7H571.5V69.7Q571.5 70.9 572.1 71.5Q572.7 72.2 573.9 72.2Q575 72.2 575.6 71.5Q576.2 70.9 576.2 69.7V58.7H578.5V69.7Q578.5 71.8 577.3 73Q576.1 74.2 573.9 74.2ZM583.3 74V58.7H585.6V71.9H592.3V74ZM595.3 74 599.2 58.7H602.2L606.1 74H603.8L602.9 70.1H598.6L597.7 74ZM599 68.2H602.5L601.4 63.8Q601.2 62.6 601 61.8Q600.8 60.9 600.7 60.6Q600.7 60.9 600.5 61.8Q600.3 62.6 600 63.8ZM611.2 77.4 612.9 70.8H615.9L613.2 77.4ZM636.8 74V72H639.9V60.7H636.8V58.7H645.3V60.7H642.2V72H645.3V74ZM649.9 74V58.7H652.8L657.2 71.4Q657.2 70.8 657.1 70Q657.1 69.1 657 68.2Q657 67.3 657 66.6V58.7H659.1V74H656.2L651.8 61.3Q651.8 61.8 651.9 62.6Q651.9 63.4 652 64.3Q652 65.2 652 66V74ZM663.4 74V58.7H667.7Q669.2 58.7 670.3 59.2Q671.4 59.8 672 60.9Q672.6 61.9 672.6 63.4V69.3Q672.6 70.7 672 71.8Q671.4 72.8 670.3 73.4Q669.2 74 667.7 74ZM665.7 71.9H667.7Q668.9 71.9 669.7 71.2Q670.4 70.5 670.4 69.3V63.4Q670.4 62.1 669.7 61.4Q668.9 60.7 667.7 60.7H665.7ZM677.1 74V72H680.2V60.7H677.1V58.7H685.6V60.7H682.5V72H685.6V74ZM689.4 74 693.3 58.7H696.3L700.2 74H697.9L697 70.1H692.7L691.7 74ZM693.1 68.2H696.6L695.5 63.8Q695.2 62.6 695.1 61.8Q694.9 60.9 694.8 60.6Q694.8 60.9 694.6 61.8Q694.4 62.6 694.1 63.8ZM735.1 68.6Q734.3 68.6 733.8 68.1Q733.3 67.6 733.3 66.8Q733.3 65.9 733.8 65.4Q734.3 64.9 735.1 64.9Q736 64.9 736.5 65.4Q737 65.9 737 66.8Q737 67.6 736.5 68.1Q736 68.6 735.1 68.6ZM771.2 74V72H774.3V60.7H771.2V58.7H779.7V60.7H776.6V72H779.7V74ZM789 74.2Q787.4 74.2 786.3 73.7Q785.2 73.2 784.6 72.2Q784 71.3 784 69.9H786.2Q786.2 71 786.9 71.6Q787.7 72.2 789 72.2Q790.2 72.2 790.9 71.6Q791.6 71 791.6 70Q791.6 69.1 791.1 68.5Q790.6 67.9 789.8 67.6L787.8 67.1Q786.1 66.6 785.2 65.4Q784.3 64.3 784.3 62.6Q784.3 61.4 784.9 60.4Q785.5 59.5 786.5 59Q787.6 58.4 789 58.4Q791.1 58.4 792.4 59.6Q793.6 60.7 793.6 62.6H791.4Q791.4 61.6 790.7 61Q790.1 60.5 788.9 60.5Q787.8 60.5 787.2 61Q786.6 61.5 786.6 62.5Q786.6 63.4 787 64Q787.5 64.6 788.4 64.9L790.3 65.5Q792 65.9 792.9 67.1Q793.8 68.3 793.8 69.9Q793.8 71.2 793.2 72.2Q792.6 73.1 791.5 73.7Q790.4 74.2 789 74.2ZM801.2 74V60.7H797.1V58.6H807.6V60.7H803.5V74Z" style="fill:var(--soft)"/><path d="M1003.6 74V58.7H1008.6Q1010.1 58.7 1011.2 59.2Q1012.3 59.8 1012.9 60.8Q1013.5 61.9 1013.5 63.3Q1013.5 64.7 1012.9 65.7Q1012.3 66.8 1011.2 67.3Q1010.1 67.9 1008.6 67.9H1005.8V74ZM1005.8 65.9H1008.6Q1009.8 65.9 1010.5 65.2Q1011.2 64.5 1011.2 63.3Q1011.2 62.1 1010.5 61.4Q1009.8 60.7 1008.6 60.7H1005.8ZM1021.5 74.2Q1020.1 74.2 1019.1 73.7Q1018 73.1 1017.5 72.1Q1016.9 71.1 1016.9 69.7V62.9Q1016.9 61.5 1017.5 60.5Q1018 59.5 1019.1 59Q1020.1 58.5 1021.5 58.5Q1023 58.5 1024 59Q1025 59.5 1025.6 60.5Q1026.2 61.5 1026.2 62.9V69.7Q1026.2 71.1 1025.6 72.1Q1025 73.1 1024 73.7Q1023 74.2 1021.5 74.2ZM1021.5 72.2Q1022.7 72.2 1023.3 71.6Q1023.9 70.9 1023.9 69.7V62.9Q1023.9 61.7 1023.3 61.1Q1022.7 60.5 1021.5 60.5Q1020.4 60.5 1019.8 61.1Q1019.2 61.7 1019.2 62.9V69.7Q1019.2 70.9 1019.8 71.6Q1020.4 72.2 1021.5 72.2ZM1030.4 74V58.7H1035.3Q1036.7 58.7 1037.8 59.2Q1038.8 59.8 1039.4 60.8Q1040 61.8 1040 63.2Q1040 64.7 1039.3 65.8Q1038.5 66.9 1037.1 67.4L1040.3 74H1037.7L1034.9 67.7H1032.7V74ZM1032.7 65.7H1035.3Q1036.4 65.7 1037.1 65Q1037.7 64.3 1037.7 63.2Q1037.7 62 1037.1 61.4Q1036.4 60.7 1035.3 60.7H1032.7ZM1047.3 74V60.7H1043.2V58.6H1053.6V60.7H1049.6V74ZM1057.4 74V58.6H1066.7V60.7H1059.6V65.3H1066.1V67.4H1059.7V74ZM1075.3 74.2Q1073.9 74.2 1072.8 73.7Q1071.8 73.1 1071.2 72.1Q1070.7 71.1 1070.7 69.7V62.9Q1070.7 61.5 1071.2 60.5Q1071.8 59.5 1072.8 59Q1073.9 58.5 1075.3 58.5Q1076.7 58.5 1077.8 59Q1078.8 59.5 1079.4 60.5Q1079.9 61.5 1079.9 62.9V69.7Q1079.9 71.1 1079.4 72.1Q1078.8 73.1 1077.8 73.7Q1076.7 74.2 1075.3 74.2ZM1075.3 72.2Q1076.5 72.2 1077.1 71.6Q1077.7 70.9 1077.7 69.7V62.9Q1077.7 61.7 1077.1 61.1Q1076.5 60.5 1075.3 60.5Q1074.2 60.5 1073.6 61.1Q1072.9 61.7 1072.9 62.9V69.7Q1072.9 70.9 1073.6 71.6Q1074.2 72.2 1075.3 72.2ZM1084.7 74V58.7H1087V71.9H1093.7V74ZM1097.9 74V72H1101V60.7H1097.9V58.7H1106.4V60.7H1103.3V72H1106.4V74ZM1115.6 74.2Q1114.2 74.2 1113.2 73.7Q1112.1 73.1 1111.6 72.1Q1111 71.1 1111 69.7V62.9Q1111 61.5 1111.6 60.5Q1112.1 59.5 1113.2 59Q1114.2 58.5 1115.6 58.5Q1117 58.5 1118.1 59Q1119.1 59.5 1119.7 60.5Q1120.2 61.5 1120.2 62.9V69.7Q1120.2 71.1 1119.7 72.1Q1119.1 73.1 1118.1 73.7Q1117 74.2 1115.6 74.2ZM1115.6 72.2Q1116.8 72.2 1117.4 71.6Q1118 70.9 1118 69.7V62.9Q1118 61.7 1117.4 61.1Q1116.8 60.5 1115.6 60.5Q1114.5 60.5 1113.9 61.1Q1113.3 61.7 1113.3 62.9V69.7Q1113.3 70.9 1113.9 71.6Q1114.5 72.2 1115.6 72.2ZM1142.5 68.6Q1141.7 68.6 1141.2 68.1Q1140.7 67.6 1140.7 66.8Q1140.7 65.9 1141.2 65.4Q1141.7 64.9 1142.5 64.9Q1143.4 64.9 1143.9 65.4Q1144.3 65.9 1144.3 66.8Q1144.3 67.6 1143.9 68.1Q1143.4 68.6 1142.5 68.6ZM1164.9 74V71.8L1169.6 66.9Q1170.7 65.7 1171.2 64.8Q1171.7 63.9 1171.7 63Q1171.7 61.8 1171.1 61.1Q1170.5 60.5 1169.3 60.5Q1168.1 60.5 1167.4 61.2Q1166.7 61.9 1166.7 63.1H1164.4Q1164.5 61.7 1165.1 60.6Q1165.7 59.6 1166.8 59Q1167.9 58.5 1169.4 58.5Q1170.8 58.5 1171.8 59Q1172.9 59.6 1173.4 60.5Q1174 61.5 1174 62.9Q1174 64.2 1173.3 65.5Q1172.6 66.8 1171 68.4L1167.5 71.9H1174.2V74ZM1182.8 74.2Q1181.4 74.2 1180.3 73.6Q1179.3 73.1 1178.7 72.1Q1178.1 71 1178.1 69.7V63Q1178.1 61.6 1178.7 60.6Q1179.2 59.6 1180.3 59Q1181.4 58.5 1182.8 58.5Q1184.3 58.5 1185.4 59Q1186.4 59.6 1187 60.6Q1187.6 61.6 1187.6 63V69.7Q1187.6 71 1187 72.1Q1186.4 73.1 1185.3 73.6Q1184.3 74.2 1182.8 74.2ZM1182.8 72.3Q1184 72.3 1184.7 71.5Q1185.4 70.8 1185.4 69.7V63Q1185.4 61.8 1184.7 61.1Q1184 60.4 1182.8 60.4Q1181.6 60.4 1180.9 61.1Q1180.2 61.8 1180.2 63V69.7Q1180.2 70.8 1180.9 71.5Q1181.6 72.3 1182.8 72.3ZM1182.8 67.6Q1182.2 67.6 1181.9 67.3Q1181.5 66.9 1181.5 66.3Q1181.5 65.7 1181.9 65.3Q1182.2 64.9 1182.8 64.9Q1183.4 64.9 1183.8 65.3Q1184.1 65.7 1184.1 66.3Q1184.1 66.9 1183.8 67.3Q1183.4 67.6 1182.8 67.6ZM1191.7 74V71.8L1196.5 66.9Q1197.6 65.7 1198.1 64.8Q1198.6 63.9 1198.6 63Q1198.6 61.8 1198 61.1Q1197.3 60.5 1196.2 60.5Q1195 60.5 1194.3 61.2Q1193.6 61.9 1193.6 63.1H1191.3Q1191.4 61.7 1192 60.6Q1192.6 59.6 1193.7 59Q1194.8 58.5 1196.2 58.5Q1197.6 58.5 1198.7 59Q1199.7 59.6 1200.3 60.5Q1200.9 61.5 1200.9 62.9Q1200.9 64.2 1200.2 65.5Q1199.5 66.8 1197.9 68.4L1194.4 71.9H1201.1V74ZM1209.7 74.2Q1208.2 74.2 1207.1 73.6Q1205.9 73 1205.3 71.8Q1204.7 70.7 1204.7 69.2Q1204.7 68 1205 66.9Q1205.4 65.7 1206 64.7L1209.8 58.7H1212.3L1207.8 65.7L1207.9 65.8Q1208.4 65.2 1209.1 64.9Q1209.8 64.5 1210.6 64.5Q1211.9 64.5 1212.8 65.1Q1213.7 65.7 1214.2 66.8Q1214.7 67.8 1214.7 69.3Q1214.7 70.7 1214.1 71.9Q1213.5 73 1212.3 73.6Q1211.2 74.2 1209.7 74.2ZM1209.7 72.3Q1211 72.3 1211.7 71.4Q1212.5 70.6 1212.5 69.3Q1212.5 67.9 1211.7 67.1Q1211 66.3 1209.7 66.3Q1208.4 66.3 1207.7 67.1Q1206.9 67.9 1206.9 69.3Q1206.9 70.6 1207.7 71.4Q1208.4 72.3 1209.7 72.3Z" style="fill:var(--soft)"/><path d="M119.8 222.4Q95.2 222.4 82.8 212Q70.5 201.6 70.5 180.4Q70.5 166.6 76.9 157.2Q83.4 147.8 95.5 143.1Q107.7 138.4 124.7 138.4Q135.2 138.4 144.2 140.3Q153.2 142.3 160 146.1Q166.8 149.8 170.5 155.6Q174.2 161.3 174.2 169H150.8Q150.8 165.7 148.8 163.2Q146.7 160.8 143.2 159.3Q139.6 157.8 135.2 157Q130.7 156.2 125.7 156.2Q118.6 156.2 113 157.6Q107.3 159.1 103.3 161.9Q99.3 164.8 97.2 169.1Q95.2 173.3 95.2 179V181.8Q95.2 189.8 98.5 194.9Q101.8 199.9 108.1 202.2Q114.5 204.6 123.7 204.6Q132.1 204.6 138.2 203.1Q144.2 201.6 147.5 198.7Q150.7 195.7 150.7 191.9V191.1H122.4V175.7H174.3V221H160.3L158 211.3Q153.4 215.1 147.6 217.6Q141.8 220.1 134.8 221.2Q127.8 222.4 119.8 222.4ZM183.8 221 223.7 139.8H250.4L290.3 221H264.2L258.1 208H214.7L208.6 221ZM222.7 190.4H250.1L242.8 173.9Q242.3 172.9 241.5 170.8Q240.6 168.7 239.7 166.4Q238.8 164.1 238 162.2Q237.3 160.2 236.9 159.3H236Q235.2 161.4 234 164.2Q232.9 167.1 231.9 169.7Q230.9 172.3 230 173.9ZM300.7 221V139.8H322.2L364.2 177.7Q365.3 178.6 367 180.3Q368.7 181.9 370.5 183.7Q372.3 185.5 373.6 187H374.7Q374.7 184.9 374.6 181.7Q374.6 178.5 374.6 176V139.8H397.2V221H376.1L335 183.9Q332.2 181.5 329.1 178.4Q326.1 175.3 324.2 173.6H323.2Q323.2 175.1 323.3 178.5Q323.4 181.9 323.4 185.8V221ZM461.7 222.4Q437 222.4 424.7 212Q412.3 201.6 412.3 180.4Q412.3 166.6 418.8 157.2Q425.2 147.8 437.4 143.1Q449.5 138.4 466.5 138.4Q477 138.4 486 140.3Q495.1 142.3 501.8 146.1Q508.6 149.8 512.3 155.6Q516.1 161.3 516.1 169H492.7Q492.7 165.7 490.6 163.2Q488.6 160.8 485 159.3Q481.5 157.8 477 157Q472.5 156.2 467.6 156.2Q460.5 156.2 454.8 157.6Q449.2 159.1 445.1 161.9Q441.1 164.8 439.1 169.1Q437 173.3 437 179V181.8Q437 189.8 440.3 194.9Q443.6 199.9 450 202.2Q456.4 204.6 465.6 204.6Q473.9 204.6 480 203.1Q486.1 201.6 489.3 198.7Q492.6 195.7 492.6 191.9V191.1H464.3V175.7H516.2V221H502.1L499.9 211.3Q495.3 215.1 489.4 217.6Q483.6 220.1 476.6 221.2Q469.7 222.4 461.7 222.4ZM525.6 221 565.5 139.8H592.3L632.2 221H606.1L600 208H556.5L550.4 221ZM564.6 190.4H591.9L584.6 173.9Q584.1 172.9 583.3 170.8Q582.5 168.7 581.5 166.4Q580.6 164.1 579.9 162.2Q579.2 160.2 578.7 159.3H577.9Q577.1 161.4 575.9 164.2Q574.7 167.1 573.7 169.7Q572.7 172.3 571.9 173.9ZM642.6 221V139.8H687.9Q702.9 139.8 713.7 144.5Q724.6 149.3 730.3 158.3Q736.1 167.4 736.1 180.4Q736.1 193.5 730.3 202.5Q724.6 211.6 713.7 216.3Q702.9 221 687.9 221ZM666.5 203.2H686.5Q692.1 203.2 696.7 201.7Q701.2 200.2 704.5 197.5Q707.8 194.8 709.6 190.8Q711.5 186.8 711.5 181.7V179Q711.5 173.9 709.6 170Q707.8 166 704.5 163.3Q701.2 160.6 696.7 159.1Q692.1 157.6 686.5 157.6H666.5ZM751.2 221V139.8H775.2V170H823.9V139.8H847.9V221H823.9V189.4H775.2V221ZM858.3 221 898.1 139.8H924.9L964.8 221H938.7L932.6 208H889.2L883 221ZM897.2 190.4H924.6L917.3 173.9Q916.8 172.9 916 170.8Q915.1 168.7 914.2 166.4Q913.2 164.1 912.5 162.2Q911.8 160.2 911.4 159.3H910.5Q909.7 161.4 908.5 164.2Q907.3 167.1 906.3 169.7Q905.3 172.3 904.5 173.9ZM975.2 221V139.8H1042.7Q1051.5 139.8 1057.3 143.5Q1063.1 147.1 1066.1 153.1Q1069 159.1 1069 166.1Q1069 173.8 1065.3 180.1Q1061.7 186.4 1054.4 190.1L1070.9 221H1043.8L1030.3 194H999.2V221ZM999.2 176.3H1034.8Q1039.2 176.3 1041.7 173.7Q1044.3 171.1 1044.3 166.7Q1044.3 163.9 1043.2 161.8Q1042 159.8 1039.9 158.7Q1037.7 157.6 1034.8 157.6H999.2ZM1075.5 221 1115.4 139.8H1142.2L1182.1 221H1156L1149.8 208H1106.4L1100.3 221ZM1114.4 190.4H1141.8L1134.5 173.9Q1134 172.9 1133.2 170.8Q1132.4 168.7 1131.4 166.4Q1130.5 164.1 1129.8 162.2Q1129.1 160.2 1128.6 159.3H1127.8Q1126.9 161.4 1125.8 164.2Q1124.6 167.1 1123.6 169.7Q1122.6 172.3 1121.8 173.9Z" style="fill:var(--text)"/><path d="M119.8 328.4Q95.2 328.4 82.8 318Q70.5 307.6 70.5 286.4Q70.5 272.6 76.9 263.2Q83.4 253.8 95.5 249.1Q107.7 244.4 124.7 244.4Q135.2 244.4 144.2 246.3Q153.2 248.3 160 252.1Q166.8 255.8 170.5 261.6Q174.2 267.3 174.2 275H150.8Q150.8 271.7 148.8 269.2Q146.7 266.8 143.2 265.3Q139.6 263.8 135.2 263Q130.7 262.2 125.7 262.2Q118.6 262.2 113 263.6Q107.3 265.1 103.3 267.9Q99.3 270.8 97.2 275.1Q95.2 279.3 95.2 285V287.8Q95.2 295.8 98.5 300.9Q101.8 305.9 108.1 308.2Q114.5 310.6 123.7 310.6Q132.1 310.6 138.2 309.1Q144.2 307.6 147.5 304.7Q150.7 301.7 150.7 297.9V297.1H122.4V281.7H174.3V327H160.3L158 317.3Q153.4 321.1 147.6 323.6Q141.8 326.1 134.8 327.2Q127.8 328.4 119.8 328.4ZM241.7 328.4Q225.4 328.4 213.4 323.4Q201.5 318.4 195 309Q188.5 299.6 188.5 286.4Q188.5 273.2 195 263.8Q201.5 254.4 213.4 249.4Q225.4 244.4 241.7 244.4Q258.2 244.4 270.1 249.4Q282.1 254.4 288.6 263.8Q295 273.2 295 286.4Q295 299.6 288.6 309Q282.1 318.4 270.1 323.4Q258.2 328.4 241.7 328.4ZM241.7 310.6Q248.1 310.6 253.3 309.1Q258.6 307.5 262.4 304.6Q266.1 301.6 268.2 297.3Q270.3 293 270.3 287.7V284.9Q270.3 279.7 268.2 275.4Q266.1 271.2 262.4 268.2Q258.6 265.3 253.3 263.8Q248.1 262.2 241.7 262.2Q235.3 262.2 230.1 263.8Q225 265.3 221.1 268.2Q217.3 271.2 215.3 275.4Q213.3 279.7 213.3 284.9V287.7Q213.3 293 215.3 297.3Q217.3 301.6 221.1 304.6Q225 307.5 230.1 309.1Q235.3 310.6 241.7 310.6ZM359.8 328.4Q343.5 328.4 331.6 323.4Q319.6 318.4 313.1 309Q306.6 299.6 306.6 286.4Q306.6 273.2 313.1 263.8Q319.6 254.4 331.6 249.4Q343.5 244.4 359.8 244.4Q376.3 244.4 388.3 249.4Q400.2 254.4 406.7 263.8Q413.2 273.2 413.2 286.4Q413.2 299.6 406.7 309Q400.2 318.4 388.3 323.4Q376.3 328.4 359.8 328.4ZM359.8 310.6Q366.2 310.6 371.4 309.1Q376.7 307.5 380.5 304.6Q384.3 301.6 386.3 297.3Q388.4 293 388.4 287.7V284.9Q388.4 279.7 386.3 275.4Q384.3 271.2 380.5 268.2Q376.7 265.3 371.4 263.8Q366.2 262.2 359.8 262.2Q353.5 262.2 348.3 263.8Q343.1 265.3 339.2 268.2Q335.4 271.2 333.4 275.4Q331.4 279.7 331.4 284.9V287.7Q331.4 293 333.4 297.3Q335.4 301.6 339.2 304.6Q343.1 307.5 348.3 309.1Q353.5 310.6 359.8 310.6ZM456.2 327V265.2H421.1V245.8H515.5V265.2H480.3V327ZM526.9 327V245.8H550.9V327Z" style="fill:var(--text)"/><line x1="64" x2="1216" y1="410" y2="410" style="stroke:var(--rule)"/><path d="M65.8 458V442.6H75.1V444.7H68.1V449.3H74.6V451.4H68.1V458ZM83.7 458.2Q81.5 458.2 80.3 457Q79.1 455.8 79.1 453.7V442.7H81.4V453.7Q81.4 454.9 82 455.5Q82.6 456.2 83.7 456.2Q84.9 456.2 85.5 455.5Q86.1 454.9 86.1 453.7V442.7H88.3V453.7Q88.3 455.8 87.1 457Q85.9 458.2 83.7 458.2ZM93.2 458V442.7H95.4V455.9H102.1V458ZM106.6 458V442.7H108.9V455.9H115.6V458ZM120.7 452.1V450H127.4V452.1ZM137.6 458.2Q136 458.2 134.9 457.7Q133.8 457.2 133.2 456.2Q132.6 455.3 132.6 453.9H134.8Q134.8 455 135.5 455.6Q136.3 456.2 137.6 456.2Q138.8 456.2 139.5 455.6Q140.2 455 140.2 454Q140.2 453.1 139.7 452.5Q139.2 451.9 138.4 451.6L136.4 451.1Q134.7 450.6 133.8 449.4Q132.9 448.3 132.9 446.6Q132.9 445.4 133.5 444.4Q134.1 443.5 135.1 443Q136.2 442.4 137.6 442.4Q139.7 442.4 141 443.6Q142.2 444.7 142.2 446.6H140Q140 445.6 139.3 445Q138.7 444.5 137.5 444.5Q136.4 444.5 135.8 445Q135.2 445.5 135.2 446.5Q135.2 447.4 135.6 448Q136.1 448.6 137 448.9L138.9 449.5Q140.6 449.9 141.5 451.1Q142.4 452.3 142.4 453.9Q142.4 455.2 141.8 456.2Q141.2 457.1 140.1 457.7Q139 458.2 137.6 458.2ZM149.8 458V444.7H145.7V442.6H156.2V444.7H152.1V458ZM159 458 162.9 442.7H165.9L169.8 458H167.5L166.6 454.1H162.2L161.3 458ZM162.6 452.2H166.1L165.1 447.8Q164.8 446.6 164.6 445.8Q164.4 444.9 164.4 444.6Q164.3 444.9 164.1 445.8Q164 446.6 163.7 447.8ZM177.9 458.2Q176.5 458.2 175.4 457.7Q174.4 457.1 173.8 456.1Q173.2 455.1 173.2 453.7V446.9Q173.2 445.5 173.8 444.5Q174.4 443.5 175.4 443Q176.5 442.5 177.9 442.5Q179.3 442.5 180.4 443Q181.4 443.6 182 444.5Q182.6 445.5 182.6 446.9H180.3Q180.3 445.7 179.7 445.1Q179.1 444.5 177.9 444.5Q176.7 444.5 176.1 445.1Q175.5 445.7 175.5 446.9V453.7Q175.5 454.9 176.1 455.6Q176.7 456.2 177.9 456.2Q179.1 456.2 179.7 455.6Q180.3 454.9 180.3 453.7H182.6Q182.6 455.1 182 456.1Q181.4 457.1 180.4 457.7Q179.3 458.2 177.9 458.2ZM186.7 458V442.7H189V449.1H191L194.2 442.7H196.6L193 450L196.8 458H194.3L191 451.1H189V458ZM213.8 458V442.7H222.8V444.7H216V449H222.1V451H216V456H222.8V458ZM227 458V442.7H229.8L234.3 455.4Q234.3 454.8 234.2 454Q234.1 453.1 234.1 452.2Q234.1 451.3 234.1 450.6V442.7H236.2V458H233.3L228.9 445.3Q228.9 445.8 229 446.6Q229 447.4 229 448.3Q229.1 449.2 229.1 450V458ZM245.1 458.2Q243.7 458.2 242.6 457.7Q241.6 457.1 241 456.1Q240.4 455.1 240.4 453.7V446.9Q240.4 445.5 241 444.5Q241.6 443.5 242.6 443Q243.7 442.5 245.1 442.5Q246.5 442.5 247.6 443Q248.6 443.6 249.2 444.5Q249.8 445.5 249.8 446.9H247.5Q247.5 445.7 246.9 445.1Q246.3 444.5 245.1 444.5Q243.9 444.5 243.3 445.1Q242.7 445.7 242.7 446.9V453.7Q242.7 454.9 243.3 455.6Q243.9 456.2 245.1 456.2Q246.3 456.2 246.9 455.6Q247.5 454.9 247.5 453.7V452H244.7V450H249.8V453.7Q249.8 455.1 249.2 456.1Q248.6 457.1 247.6 457.7Q246.5 458.2 245.1 458.2ZM254.2 458V456H257.3V444.7H254.2V442.7H262.7V444.7H259.6V456H262.7V458ZM267.3 458V442.7H270.2L274.6 455.4Q274.6 454.8 274.5 454Q274.5 453.1 274.4 452.2Q274.4 451.3 274.4 450.6V442.7H276.5V458H273.6L269.2 445.3Q269.2 445.8 269.3 446.6Q269.3 447.4 269.4 448.3Q269.4 449.2 269.4 450V458ZM281 458V442.7H290V444.7H283.2V449H289.3V451H283.2V456H290V458ZM294.5 458V442.7H303.5V444.7H296.7V449H302.7V451H296.7V456H303.5V458ZM307.7 458V442.7H312.5Q313.9 442.7 315 443.2Q316.1 443.8 316.7 444.8Q317.3 445.8 317.3 447.2Q317.3 448.7 316.5 449.8Q315.7 450.9 314.4 451.4L317.5 458H314.9L312.1 451.7H310V458ZM310 449.7H312.5Q313.6 449.7 314.3 449Q315 448.3 315 447.2Q315 446 314.3 445.4Q313.6 444.7 312.5 444.7H310ZM332.8 452.1V450H345.4V452.1ZM361.8 458 360.1 442.7H362.2L363.2 453.7Q363.2 454.1 363.3 454.6Q363.3 455.1 363.3 455.6Q363.4 456.1 363.4 456.4Q363.4 456.1 363.4 455.6Q363.5 455.1 363.5 454.6Q363.6 454.1 363.6 453.7L365 442.7H367.1L368.3 453.7Q368.4 454.1 368.4 454.6Q368.5 455.1 368.5 455.6Q368.6 456.1 368.6 456.4Q368.6 456.1 368.7 455.6Q368.7 455.1 368.7 454.6Q368.8 454.1 368.8 453.7L369.9 442.7H371.8L370.1 458H367.5L366.3 446.8Q366.2 446.4 366.2 445.9Q366.1 445.4 366.1 444.9Q366 444.5 366 444.2Q366 444.5 365.9 444.9Q365.9 445.4 365.9 445.9Q365.8 446.4 365.7 446.8L364.4 458ZM375.1 458V442.7H384.1V444.7H377.3V449H383.4V451H377.3V456H384.1V458ZM388.3 458V442.7H392.9Q395 442.7 396.3 443.7Q397.5 444.8 397.5 446.6Q397.5 447.7 397.1 448.4Q396.6 449.2 395.8 449.6Q395 450 394 450V449.8Q395.1 449.8 396 450.3Q396.9 450.7 397.4 451.6Q397.9 452.5 397.9 453.7Q397.9 455 397.3 456Q396.7 456.9 395.7 457.5Q394.6 458 393.2 458ZM390.5 456H393Q394.2 456 394.9 455.4Q395.6 454.7 395.6 453.6Q395.6 452.4 394.9 451.7Q394.2 451 393 451H390.5ZM390.5 449.1H392.8Q394 449.1 394.6 448.5Q395.3 447.9 395.3 446.8Q395.3 445.8 394.6 445.2Q394 444.6 392.9 444.6H390.5ZM419.7 452.6Q418.9 452.6 418.4 452.1Q417.9 451.6 417.9 450.8Q417.9 449.9 418.4 449.4Q418.9 448.9 419.7 448.9Q420.6 448.9 421.1 449.4Q421.6 449.9 421.6 450.8Q421.6 451.6 421.1 452.1Q420.6 452.6 419.7 452.6ZM441.7 458V442.7H444.5L446 447.6Q446.3 448.3 446.4 448.9Q446.6 449.6 446.7 449.9Q446.7 449.6 446.9 448.9Q447.1 448.3 447.3 447.6L448.7 442.7H451.5V458H449.4V452.8Q449.4 451.8 449.4 450.6Q449.5 449.4 449.6 448.2Q449.7 447 449.8 445.9Q449.9 444.7 450 443.9L447.7 451.3H445.5L443.2 443.9Q443.3 444.7 443.4 445.8Q443.6 446.9 443.6 448.1Q443.7 449.3 443.8 450.5Q443.8 451.8 443.8 452.8V458ZM460.1 458.2Q458.6 458.2 457.6 457.7Q456.6 457.1 456 456.1Q455.4 455.1 455.4 453.7V446.9Q455.4 445.5 456 444.5Q456.6 443.5 457.6 443Q458.6 442.5 460.1 442.5Q461.5 442.5 462.5 443Q463.6 443.5 464.1 444.5Q464.7 445.5 464.7 446.9V453.7Q464.7 455.1 464.1 456.1Q463.6 457.1 462.5 457.7Q461.5 458.2 460.1 458.2ZM460.1 456.2Q461.2 456.2 461.8 455.6Q462.4 454.9 462.4 453.7V446.9Q462.4 445.7 461.8 445.1Q461.2 444.5 460.1 444.5Q458.9 444.5 458.3 445.1Q457.7 445.7 457.7 446.9V453.7Q457.7 454.9 458.3 455.6Q458.9 456.2 460.1 456.2ZM469 458V442.7H473.5Q475.7 442.7 476.9 443.7Q478.2 444.8 478.2 446.6Q478.2 447.7 477.7 448.4Q477.3 449.2 476.5 449.6Q475.7 450 474.6 450V449.8Q475.7 449.8 476.6 450.3Q477.5 450.7 478 451.6Q478.5 452.5 478.5 453.7Q478.5 455 477.9 456Q477.4 456.9 476.3 457.5Q475.2 458 473.8 458ZM471.2 456H473.6Q474.8 456 475.5 455.4Q476.3 454.7 476.3 453.6Q476.3 452.4 475.5 451.7Q474.8 451 473.6 451H471.2ZM471.2 449.1H473.5Q474.6 449.1 475.3 448.5Q475.9 447.9 475.9 446.8Q475.9 445.8 475.3 445.2Q474.6 444.6 473.5 444.6H471.2ZM482.7 458V456H485.8V444.7H482.7V442.7H491.2V444.7H488.1V456H491.2V458ZM496.4 458V442.7H498.6V455.9H505.3V458ZM509.5 458V442.7H518.5V444.7H511.7V449H517.8V451H511.7V456H518.5V458ZM540.7 452.6Q539.9 452.6 539.4 452.1Q538.9 451.6 538.9 450.8Q538.9 449.9 539.4 449.4Q539.9 448.9 540.7 448.9Q541.6 448.9 542.1 449.4Q542.5 449.9 542.5 450.8Q542.5 451.6 542.1 452.1Q541.6 452.6 540.7 452.6ZM563 458V442.7H567.3Q568.8 442.7 569.9 443.2Q571 443.8 571.7 444.9Q572.3 445.9 572.3 447.4V453.3Q572.3 454.7 571.7 455.8Q571 456.8 569.9 457.4Q568.8 458 567.3 458ZM565.3 455.9H567.3Q568.6 455.9 569.3 455.2Q570 454.5 570 453.3V447.4Q570 446.1 569.3 445.4Q568.6 444.7 567.3 444.7H565.3ZM576.7 458V442.7H585.7V444.7H578.9V449H585V451H578.9V456H585.7V458ZM594.5 458.2Q593 458.2 591.9 457.7Q590.7 457.2 590.1 456.2Q589.5 455.3 589.5 453.9H591.8Q591.8 455 592.5 455.6Q593.2 456.2 594.5 456.2Q595.8 456.2 596.5 455.6Q597.1 455 597.1 454Q597.1 453.1 596.7 452.5Q596.2 451.9 595.3 451.6L593.4 451.1Q591.7 450.6 590.8 449.4Q589.9 448.3 589.9 446.6Q589.9 445.4 590.4 444.4Q591 443.5 592.1 443Q593.1 442.4 594.5 442.4Q596.6 442.4 597.9 443.6Q599.2 444.7 599.2 446.6H596.9Q596.9 445.6 596.3 445Q595.7 444.5 594.5 444.5Q593.4 444.5 592.8 445Q592.1 445.5 592.1 446.5Q592.1 447.4 592.6 448Q593.1 448.6 594 448.9L595.9 449.5Q597.6 449.9 598.5 451.1Q599.4 452.3 599.4 453.9Q599.4 455.2 598.8 456.2Q598.2 457.1 597.1 457.7Q596 458.2 594.5 458.2ZM603.4 458V442.7H605.6V449.1H607.7L610.8 442.7H613.3L609.7 450L613.4 458H610.9L607.6 451.1H605.6V458ZM620.2 458V444.7H616.1V442.6H626.6V444.7H622.5V458ZM634.8 458.2Q633.4 458.2 632.3 457.7Q631.3 457.1 630.7 456.1Q630.2 455.1 630.2 453.7V446.9Q630.2 445.5 630.7 444.5Q631.3 443.5 632.3 443Q633.4 442.5 634.8 442.5Q636.2 442.5 637.2 443Q638.3 443.5 638.8 444.5Q639.4 445.5 639.4 446.9V453.7Q639.4 455.1 638.8 456.1Q638.3 457.1 637.2 457.7Q636.2 458.2 634.8 458.2ZM634.8 456.2Q635.9 456.2 636.5 455.6Q637.1 454.9 637.1 453.7V446.9Q637.1 445.7 636.5 445.1Q635.9 444.5 634.8 444.5Q633.6 444.5 633 445.1Q632.4 445.7 632.4 446.9V453.7Q632.4 454.9 633 455.6Q633.6 456.2 634.8 456.2ZM643.7 458V442.7H648.7Q650.2 442.7 651.3 443.2Q652.4 443.8 653 444.8Q653.6 445.9 653.6 447.3Q653.6 448.7 653 449.7Q652.4 450.8 651.3 451.3Q650.2 451.9 648.7 451.9H646V458ZM646 449.9H648.7Q649.9 449.9 650.6 449.2Q651.3 448.5 651.3 447.3Q651.3 446.1 650.6 445.4Q649.9 444.7 648.7 444.7H646ZM675.1 452.6Q674.3 452.6 673.8 452.1Q673.3 451.6 673.3 450.8Q673.3 449.9 673.8 449.4Q674.3 448.9 675.1 448.9Q676 448.9 676.5 449.4Q676.9 449.9 676.9 450.8Q676.9 451.6 676.5 452.1Q676 452.6 675.1 452.6ZM696.6 458 700.5 442.7H703.5L707.4 458H705.1L704.2 454.1H699.8L698.9 458ZM700.2 452.2H703.7L702.7 447.8Q702.4 446.6 702.2 445.8Q702 444.9 702 444.6Q701.9 444.9 701.7 445.8Q701.6 446.6 701.3 447.8ZM711.2 458V456H714.3V444.7H711.2V442.7H719.7V444.7H716.6V456H719.7V458Z" style="fill:var(--text)"/><path d="M842.8 458V442.7H845.1V455.9H851.8V458ZM856 458V456H859.1V444.7H856V442.7H864.5V444.7H861.4V456H864.5V458ZM873.8 458.2Q872.4 458.2 871.3 457.7Q870.2 457.1 869.7 456.1Q869.1 455.1 869.1 453.7V446.9Q869.1 445.5 869.7 444.5Q870.2 443.5 871.3 443Q872.4 442.5 873.8 442.5Q875.2 442.5 876.3 443Q877.3 443.6 877.9 444.5Q878.5 445.5 878.5 446.9H876.2Q876.2 445.7 875.6 445.1Q874.9 444.5 873.8 444.5Q872.6 444.5 872 445.1Q871.3 445.7 871.3 446.9V453.7Q871.3 454.9 872 455.6Q872.6 456.2 873.8 456.2Q874.9 456.2 875.6 455.6Q876.2 454.9 876.2 453.7V452H873.3V450H878.5V453.7Q878.5 455.1 877.9 456.1Q877.3 457.1 876.3 457.7Q875.2 458.2 873.8 458.2ZM882.6 458V442.7H884.9V449H889.4V442.7H891.7V458H889.4V451.1H884.9V458ZM899.4 458V444.7H895.4V442.6H905.8V444.7H901.7V458ZM909.5 458V442.7H911.8V449H916.3V442.7H918.5V458H916.3V451.1H911.8V458ZM927.5 458.2Q926 458.2 925 457.7Q924 457.1 923.4 456.1Q922.8 455.1 922.8 453.7V446.9Q922.8 445.5 923.4 444.5Q924 443.5 925 443Q926 442.5 927.5 442.5Q928.9 442.5 929.9 443Q931 443.5 931.5 444.5Q932.1 445.5 932.1 446.9V453.7Q932.1 455.1 931.5 456.1Q931 457.1 929.9 457.7Q928.9 458.2 927.5 458.2ZM927.5 456.2Q928.6 456.2 929.2 455.6Q929.8 454.9 929.8 453.7V446.9Q929.8 445.7 929.2 445.1Q928.6 444.5 927.5 444.5Q926.3 444.5 925.7 445.1Q925.1 445.7 925.1 446.9V453.7Q925.1 454.9 925.7 455.6Q926.3 456.2 927.5 456.2ZM940.9 458.2Q938.7 458.2 937.5 457Q936.3 455.8 936.3 453.7V442.7H938.6V453.7Q938.6 454.9 939.1 455.5Q939.7 456.2 940.9 456.2Q942.1 456.2 942.6 455.5Q943.2 454.9 943.2 453.7V442.7H945.5V453.7Q945.5 455.8 944.3 457Q943.1 458.2 940.9 458.2ZM954.4 458.2Q952.8 458.2 951.7 457.7Q950.6 457.2 950 456.2Q949.4 455.3 949.4 453.9H951.7Q951.7 455 952.4 455.6Q953.1 456.2 954.4 456.2Q955.6 456.2 956.3 455.6Q957 455 957 454Q957 453.1 956.6 452.5Q956.1 451.9 955.2 451.6L953.3 451.1Q951.6 450.6 950.7 449.4Q949.8 448.3 949.8 446.6Q949.8 445.4 950.3 444.4Q950.9 443.5 951.9 443Q953 442.4 954.4 442.4Q956.5 442.4 957.8 443.6Q959.1 444.7 959.1 446.6H956.8Q956.8 445.6 956.2 445Q955.5 444.5 954.4 444.5Q953.3 444.5 952.6 445Q952 445.5 952 446.5Q952 447.4 952.5 448Q953 448.6 953.8 448.9L955.8 449.5Q957.5 449.9 958.4 451.1Q959.3 452.3 959.3 453.9Q959.3 455.2 958.7 456.2Q958.1 457.1 957 457.7Q955.9 458.2 954.4 458.2ZM963.5 458V442.7H972.5V444.7H965.7V449H971.7V451H965.7V456H972.5V458ZM990.1 458V442.7H994.4Q995.9 442.7 997 443.2Q998.1 443.8 998.7 444.9Q999.4 445.9 999.4 447.4V453.3Q999.4 454.7 998.7 455.8Q998.1 456.8 997 457.4Q995.9 458 994.4 458ZM992.4 455.9H994.4Q995.6 455.9 996.4 455.2Q997.1 454.5 997.1 453.3V447.4Q997.1 446.1 996.4 445.4Q995.6 444.7 994.4 444.7H992.4ZM1003.8 458V442.7H1012.8V444.7H1006V449H1012V451H1006V456H1012.8V458ZM1021.6 458.2Q1020 458.2 1018.9 457.7Q1017.8 457.2 1017.2 456.2Q1016.6 455.3 1016.6 453.9H1018.9Q1018.9 455 1019.6 455.6Q1020.3 456.2 1021.6 456.2Q1022.8 456.2 1023.5 455.6Q1024.2 455 1024.2 454Q1024.2 453.1 1023.8 452.5Q1023.3 451.9 1022.4 451.6L1020.5 451.1Q1018.8 450.6 1017.9 449.4Q1017 448.3 1017 446.6Q1017 445.4 1017.5 444.4Q1018.1 443.5 1019.1 443Q1020.2 442.4 1021.6 442.4Q1023.7 442.4 1025 443.6Q1026.3 444.7 1026.3 446.6H1024Q1024 445.6 1023.4 445Q1022.7 444.5 1021.6 444.5Q1020.5 444.5 1019.8 445Q1019.2 445.5 1019.2 446.5Q1019.2 447.4 1019.7 448Q1020.2 448.6 1021 448.9L1023 449.5Q1024.7 449.9 1025.6 451.1Q1026.5 452.3 1026.5 453.9Q1026.5 455.2 1025.9 456.2Q1025.3 457.1 1024.2 457.7Q1023.1 458.2 1021.6 458.2ZM1030.4 458V442.7H1032.7V449.1H1034.7L1037.9 442.7H1040.4L1036.7 450L1040.5 458H1038L1034.7 451.1H1032.7V458ZM1047.3 458V444.7H1043.2V442.6H1053.6V444.7H1049.6V458ZM1061.9 458.2Q1060.4 458.2 1059.4 457.7Q1058.4 457.1 1057.8 456.1Q1057.2 455.1 1057.2 453.7V446.9Q1057.2 445.5 1057.8 444.5Q1058.4 443.5 1059.4 443Q1060.4 442.5 1061.9 442.5Q1063.3 442.5 1064.3 443Q1065.4 443.5 1065.9 444.5Q1066.5 445.5 1066.5 446.9V453.7Q1066.5 455.1 1065.9 456.1Q1065.4 457.1 1064.3 457.7Q1063.3 458.2 1061.9 458.2ZM1061.9 456.2Q1063 456.2 1063.6 455.6Q1064.2 454.9 1064.2 453.7V446.9Q1064.2 445.7 1063.6 445.1Q1063 444.5 1061.9 444.5Q1060.7 444.5 1060.1 445.1Q1059.5 445.7 1059.5 446.9V453.7Q1059.5 454.9 1060.1 455.6Q1060.7 456.2 1061.9 456.2ZM1070.8 458V442.7H1075.8Q1077.3 442.7 1078.4 443.2Q1079.5 443.8 1080.1 444.8Q1080.7 445.9 1080.7 447.3Q1080.7 448.7 1080.1 449.7Q1079.5 450.8 1078.4 451.3Q1077.3 451.9 1075.8 451.9H1073V458ZM1073 449.9H1075.8Q1077 449.9 1077.7 449.2Q1078.4 448.5 1078.4 447.3Q1078.4 446.1 1077.7 445.4Q1077 444.7 1075.8 444.7H1073ZM1102.2 452.6Q1101.3 452.6 1100.8 452.1Q1100.3 451.6 1100.3 450.8Q1100.3 449.9 1100.8 449.4Q1101.3 448.9 1102.2 448.9Q1103 448.9 1103.5 449.4Q1104 449.9 1104 450.8Q1104 451.6 1103.5 452.1Q1103 452.6 1102.2 452.6ZM1124.6 458V456H1128.7V444.6L1124.6 447.7V445.2L1128.1 442.7H1130.9V456H1134.2V458ZM1142.5 458.2Q1141.1 458.2 1140 457.6Q1138.9 457.1 1138.3 456.1Q1137.8 455 1137.8 453.7V447Q1137.8 445.6 1138.3 444.6Q1138.9 443.6 1140 443Q1141.1 442.5 1142.5 442.5Q1144 442.5 1145 443Q1146.1 443.6 1146.7 444.6Q1147.2 445.6 1147.2 447V453.7Q1147.2 455 1146.7 456.1Q1146.1 457.1 1145 457.6Q1143.9 458.2 1142.5 458.2ZM1142.5 456.3Q1143.7 456.3 1144.4 455.5Q1145.1 454.8 1145.1 453.7V447Q1145.1 445.8 1144.4 445.1Q1143.7 444.4 1142.5 444.4Q1141.3 444.4 1140.6 445.1Q1139.9 445.8 1139.9 447V453.7Q1139.9 454.8 1140.6 455.5Q1141.3 456.3 1142.5 456.3ZM1142.5 451.6Q1141.9 451.6 1141.5 451.3Q1141.2 450.9 1141.2 450.3Q1141.2 449.7 1141.5 449.3Q1141.9 448.9 1142.5 448.9Q1143.1 448.9 1143.5 449.3Q1143.8 449.7 1143.8 450.3Q1143.8 450.9 1143.5 451.3Q1143.1 451.6 1142.5 451.6ZM1155.9 458.2Q1154.5 458.2 1153.4 457.6Q1152.4 457.1 1151.8 456.1Q1151.2 455 1151.2 453.7V447Q1151.2 445.6 1151.8 444.6Q1152.3 443.6 1153.4 443Q1154.5 442.5 1155.9 442.5Q1157.4 442.5 1158.5 443Q1159.5 443.6 1160.1 444.6Q1160.7 445.6 1160.7 447V453.7Q1160.7 455 1160.1 456.1Q1159.5 457.1 1158.4 457.6Q1157.4 458.2 1155.9 458.2ZM1155.9 456.3Q1157.1 456.3 1157.8 455.5Q1158.5 454.8 1158.5 453.7V447Q1158.5 445.8 1157.8 445.1Q1157.1 444.4 1155.9 444.4Q1154.8 444.4 1154.1 445.1Q1153.4 445.8 1153.4 447V453.7Q1153.4 454.8 1154.1 455.5Q1154.8 456.3 1155.9 456.3ZM1155.9 451.6Q1155.4 451.6 1155 451.3Q1154.6 450.9 1154.6 450.3Q1154.6 449.7 1155 449.3Q1155.4 448.9 1155.9 448.9Q1156.5 448.9 1156.9 449.3Q1157.3 449.7 1157.3 450.3Q1157.3 450.9 1156.9 451.3Q1156.5 451.6 1155.9 451.6ZM1179.9 455.4 1178.6 454 1181.4 451.1 1178.6 448.3 1179.9 446.9 1182.8 449.7 1185.7 446.8 1187.1 448.2 1184.2 451.1 1187 454 1185.6 455.4 1182.8 452.5ZM1211.8 458V454.8H1204.9V451.4L1210.9 442.7H1213.4L1207.1 452V452.8H1211.8V449.2H1214V458Z" style="fill:var(--accent)"/><g clip-path="url(#hero-dark-lens)"><rect width="1280" height="520" style="fill:var(--lens)"/><rect width="1280" height="520" fill="url(#hero-dark-grid)"/><path d="M109.8 277.2h0M546.4 416.9h0M77.8 432.1h0M198.9 76.5h0M97.9 48.6h0M863.7 225.2h0M746.1 237.5h0M1005 355.5h0M48 241.6h0M180.4 138.9h0M1100.6 58.7h0M1091.3 153.6h0M207.1 104.6h0M345.8 22h0M278.9 97.9h0M85.2 20.1h0M1104.2 314.8h0M332.8 186.7h0M146.7 184.5h0M1199.2 273.6h0M343.8 196h0M1034.7 375.1h0M54.6 154.1h0M878.7 479.1h0M472.1 125.8h0M950.2 249.5h0M1224.9 210h0M1194 367.9h0M1235.6 335.5h0M1044.4 121.3h0M341.6 221.1h0M743.4 454.1h0M669.1 29h0M714.8 139.3h0M962.4 458h0M1106.9 472.2h0M190 78.4h0M292.3 477.2h0M440.5 114h0M566.2 28.7h0M986 149.8h0M91.3 350.3h0M315.7 72.5h0M82.5 116.8h0M398.2 384.6h0M640.1 105.4h0M929 284.5h0M872.8 491.6h0M369.6 136.3h0M589.7 95.6h0M347.6 63.1h0M71.7 30.8h0M1110.1 207h0M866.8 352.8h0M58.6 83.9h0M332.7 55.7h0M1229.9 257.1h0M878.3 344.3h0M166.9 449h0M577.3 149h0M1119.7 357.6h0M394.4 87.5h0M950.9 422.8h0M379.4 198.7h0M1258.5 302.8h0M146.1 420.6h0M1180.1 139.7h0M653.6 111.1h0M393 287.5h0M227.5 97.6h0M1143.4 258.6h0M1143.8 498.3h0M444 63.7h0M949.6 218.1h0M670 200.9h0M1089.9 123.7h0M328.1 211.9h0M328.1 72.3h0M820.4 165.8h0M742.8 206.3h0M765.3 25h0M1115.9 248.1h0M856.3 221.6h0M847.5 464.1h0M62.3 182.3h0M936.5 262.3h0M252.3 127.2h0M845 475.4h0M489.5 199.5h0M229.9 21.4h0M455.8 478.6h0M1215.7 119.6h0M1038.8 414.6h0M81.1 247.3h0M1160.2 112.7h0M1132.3 34.5h0M1189.6 31.6h0M499.3 140.5h0M631.9 465.5h0M978.3 311.5h0M1115.5 494.2h0M900.1 234.5h0M170.2 423.6h0M267 138.8h0M1153.8 39.4h0M743.2 466.5h0M1094 235.6h0M759.2 317.6h0M477.2 87.9h0M272.3 25.5h0M861.1 108.9h0M98.5 68.7h0M223 353.8h0M407.3 291.9h0M545.5 413.8h0M1114.7 241.2h0M479.8 262.1h0M1218.9 114.7h0M86.2 464.6h0M218.7 397.2h0M246.9 124.7h0M662.2 204.1h0M547.9 336.2h0M987.2 240h0M606.8 71.4h0M553.9 64h0M488.5 476.4h0M216.9 450.3h0M1160.7 120h0M862.8 449.8h0M508.9 402.9h0M1248.2 297.1h0M968.2 232.3h0M746.5 338.6h0M22.2 36.2h0M1130.5 83.4h0M460.2 71.1h0M187.1 469.6h0M1100.4 395.4h0M679.1 214.9h0M703.1 471.6h0M815.5 410.4h0M300.2 70.5h0M349.8 285.8h0M997.7 271.2h0M816.1 483.3h0M1111.3 27.3h0M885 431.6h0M918.5 293.8h0M152.3 465.9h0M1043.1 323.1h0M274.2 173.2h0M45.9 143.2h0M907.5 196.7h0M786.7 34.9h0M561.2 391.1h0M893.8 278.2h0M231.3 20.6h0M248.8 257.4h0" stroke="#D7E3EA" stroke-width="2" stroke-linecap="round" opacity=".55"><animate attributeName="opacity" values="1;0.35;1" dur="3.1s" begin="0s" repeatCount="indefinite" calcMode="spline" keyTimes="0;.5;1" keySplines=".4 0 .6 1;.4 0 .6 1"/></path><path d="M421.6 92.4h0M1032 106.7h0M812.3 198.8h0M848.6 387h0M1105.6 170.6h0M757 298.3h0M1061.6 473.4h0M843.5 49.1h0M372.9 205.2h0M309.3 252.8h0M876.2 267.4h0M693.5 33h0M1233.3 434.4h0M263.9 118.1h0M1136.4 423.4h0M1223.9 331.8h0M383.3 135.5h0M1148.4 189.8h0M1158 260.8h0M233.7 247.3h0M710 176.5h0M977.6 263.7h0M779.5 262.7h0M879 237.1h0M612.8 471.9h0M211.5 363.7h0M220.2 227.1h0M915.5 29.4h0M109.8 470.4h0M102.6 434.1h0M352.1 82h0M1035.5 227.4h0M1054.9 208.7h0M1052 359.2h0M181 53.9h0M1063.2 437.9h0M493.2 247.8h0M308.7 301.1h0M950.7 335.6h0M1241.1 91.7h0M1126 321.1h0M1027.2 86.9h0M150.1 421.2h0M798.4 320.6h0M947.8 261.4h0M837.5 51.7h0M924.4 118.5h0M202.8 141.9h0M95.2 149h0M660.5 243h0M1192.5 121.1h0M184.4 413.7h0M24.5 256h0M1169.2 81.1h0M446.1 162.9h0M1230.6 144.9h0M176.1 261.6h0M47 35.5h0M1130.7 247.2h0M332.2 325.4h0M159 53.8h0M591.3 480.3h0M326.4 481.1h0M401.2 30.5h0M385.7 476.9h0M945.4 35.3h0M785.1 145.8h0M957 459.9h0M124.3 66.3h0M536.9 317.7h0M947.5 426.6h0M722.9 199h0M210.1 444.4h0M336.1 307.7h0M272.2 401.7h0M471.1 114.7h0M38.4 284.7h0M1148.1 62.7h0M1189.4 488.3h0M763.4 284h0M399.7 221.6h0M563.6 31.2h0M652.6 39.6h0M654.2 46h0M1082.8 498.1h0M1031.4 88.9h0M993.2 75.2h0M149.7 496.6h0M783.9 227.5h0M298.1 300.1h0M273.2 319.5h0M205.1 66h0M347.7 25.5h0M717.3 188.2h0M570.3 469.8h0M267.4 311.9h0M1122.8 395.8h0M27.9 425.3h0M596.9 376h0M68.1 181h0M881.9 425.8h0M802.1 352.6h0M878.9 324.3h0M933.6 51.6h0M1071.2 409.8h0M371.8 123.1h0M637.9 72.8h0" stroke="#D7E3EA" stroke-width="1.6" stroke-linecap="round" opacity=".4"><animate attributeName="opacity" values="1;0.35;1" dur="4.3s" begin="1.1s" repeatCount="indefinite" calcMode="spline" keyTimes="0;.5;1" keySplines=".4 0 .6 1;.4 0 .6 1"/></path><path d="M296.8 321.2h0M735.6 210.4h0M732.3 272.1h0M924.5 158.2h0M166.4 220.7h0M822.4 496.7h0M165.2 48.3h0M701.3 444h0M464.9 444.4h0M477.9 291.8h0M858.5 45.9h0M987.2 439.8h0M172.3 427.5h0M977.2 275.6h0M428.8 127.1h0M1241.3 429.3h0M1181.9 494.3h0M839.1 456.7h0M998.5 179.6h0M177.5 92.6h0M1020.1 90.2h0M1177.7 228.2h0M247.1 21.9h0M713.8 472.8h0M850.1 396.3h0M197.3 443.8h0M624.2 495.1h0M1241.5 398.4h0M543.6 457.5h0M340.7 91.7h0M1014 60.2h0M440.5 285.5h0M346.4 481.7h0M698.4 137.3h0M817.6 41h0M645.4 420.8h0M1044.7 300.3h0M626.7 21.6h0M614 348.2h0M589.1 413.6h0M195.8 271.6h0M1168.7 362.3h0M1205.6 444.4h0M802.3 458.4h0M928.1 236.4h0M340.4 293.4h0M97 153.2h0M1202.9 427.4h0M20.2 207.9h0M1043.7 430.6h0M667.7 347.4h0M915 330.7h0M990.1 131.6h0M866.4 115.1h0M1222.6 169.6h0M306.2 126.3h0M507.9 122.2h0M507.7 451.1h0M928.6 498.8h0M428.3 109h0M63.2 50h0M338.7 378.7h0M440.4 150.7h0M609.2 479.3h0M1015.2 374.5h0M416.2 193.7h0M118 114.7h0M705.2 176.4h0M424.7 210.1h0M649.1 131.1h0M608.7 413.2h0M167.8 111h0M371.3 167.6h0M536.4 434.8h0M272.5 22.8h0M371.3 270.2h0M154.9 255.4h0M1141.2 317.8h0M521.6 426.2h0M326.4 367.9h0M71 289.9h0M627 132.9h0M122 372.1h0M1030.6 113h0M629.9 479.2h0M224.7 398.4h0M101.2 188.4h0M245.8 97.4h0M809 192.7h0M708.4 298.4h0M942.1 43.2h0M334.5 326.8h0M312.8 377.1h0M945.2 176.9h0M427.4 134.8h0M1234 245.4h0M470.6 412.4h0M1125.2 51.7h0M143.8 67h0M1215.4 261.8h0M1089.2 63.6h0M628.6 255.9h0M1051.5 145.1h0" stroke="#6FE6FF" stroke-width="1.6" stroke-linecap="round" opacity=".5"><animate attributeName="opacity" values="1;0.35;1" dur="5.2s" begin="2.2s" repeatCount="indefinite" calcMode="spline" keyTimes="0;.5;1" keySplines=".4 0 .6 1;.4 0 .6 1"/></path><path d="M91.9 263.6h0M557.7 53.5h0M208.5 254.7h0M506.5 211.5h0M806.5 49.9h0M145.8 194.5h0M597.8 252.2h0M1047.8 97.5h0M661.9 190.7h0M829.7 403.8h0M700.3 82.9h0M708.7 396.5h0M110 135.5h0M793.7 265.9h0M149.9 147.5h0M727.5 356.2h0M42.5 140.2h0M608.7 468.6h0M521.8 186.8h0M336.9 98.4h0M403.8 191.2h0M269.2 262.3h0M785 328.5h0M397.5 292.5h0M1232.9 469.4h0M1133.2 253.3h0M411.9 423.3h0M550.8 152.1h0M701 365.4h0M819.2 157.4h0M193.1 112.4h0M587.1 284.7h0M196 44.9h0M1026.7 388h0M412.4 152.3h0M326.7 51.1h0M830.1 495.7h0M984.4 473.9h0M702.2 326.8h0M67.3 422.3h0M647.4 173.2h0M829.9 30.7h0M328.1 453.7h0M92.4 393.9h0M403.6 164.1h0M282.8 318.9h0M1149.4 89.4h0M195.9 33.8h0M1153.9 473.3h0M275.1 73.7h0M965.1 489.4h0" stroke="#6FE6FF" stroke-width="3" stroke-linecap="round"><animate attributeName="opacity" values="1;0.4;1" dur="2.6s" begin="0.4s" repeatCount="indefinite" calcMode="spline" keyTimes="0;.5;1" keySplines=".4 0 .6 1;.4 0 .6 1"/></path><line x1="64" x2="1216" y1="140.1" y2="140.1" stroke="#6FE6FF" stroke-opacity="0.5" stroke-width="1" stroke-dasharray="6 6"/><line x1="64" x2="1216" y1="158.9" y2="158.9" stroke="#6FE6FF" stroke-opacity="0.28" stroke-width="1" stroke-dasharray="3 7"/><line x1="64" x2="1216" y1="221" y2="221" stroke="#6FE6FF" stroke-opacity="0.7" stroke-width="1"/><line x1="64" x2="1216" y1="246.1" y2="246.1" stroke="#6FE6FF" stroke-opacity="0.5" stroke-width="1" stroke-dasharray="6 6"/><line x1="64" x2="1216" y1="264.9" y2="264.9" stroke="#6FE6FF" stroke-opacity="0.28" stroke-width="1" stroke-dasharray="3 7"/><line x1="64" x2="1216" y1="327" y2="327" stroke="#6FE6FF" stroke-opacity="0.7" stroke-width="1"/><path d="M1087.4 158.2Q1086.5 158.2 1085.8 157.9Q1085.2 157.5 1084.8 156.9Q1084.4 156.3 1084.4 155.4V151.2Q1084.4 150.3 1084.8 149.7Q1085.2 149.1 1085.8 148.8Q1086.5 148.4 1087.4 148.4Q1088.2 148.4 1088.9 148.8Q1089.5 149.1 1089.9 149.7Q1090.3 150.3 1090.3 151.2H1088.8Q1088.8 150.5 1088.5 150.1Q1088.1 149.7 1087.4 149.7Q1086.6 149.7 1086.2 150.1Q1085.8 150.5 1085.8 151.2V155.4Q1085.8 156.1 1086.2 156.5Q1086.6 156.9 1087.4 156.9Q1088.1 156.9 1088.5 156.5Q1088.8 156.1 1088.8 155.4H1090.3Q1090.3 156.3 1089.9 156.9Q1089.5 157.5 1088.9 157.8Q1088.2 158.2 1087.4 158.2ZM1092.3 158.1 1094.7 148.6H1096.5L1099 158.1H1097.5L1097 155.6H1094.3L1093.7 158.1ZM1094.5 154.5H1096.7L1096 151.7Q1095.9 151 1095.8 150.5Q1095.7 149.9 1095.6 149.7Q1095.6 149.9 1095.5 150.5Q1095.4 151 1095.2 151.7ZM1101.1 158.1V148.6H1104.2Q1105.2 148.6 1105.8 148.9Q1106.5 149.3 1106.9 149.9Q1107.3 150.6 1107.3 151.4Q1107.3 152.3 1106.9 152.9Q1106.5 153.6 1105.8 153.9Q1105.2 154.3 1104.2 154.3H1102.5V158.1ZM1102.5 153H1104.2Q1105 153 1105.4 152.6Q1105.8 152.2 1105.8 151.4Q1105.8 150.7 1105.4 150.3Q1105 149.8 1104.2 149.8H1102.5ZM1117.8 158.1V148.6H1119.2V152.5H1122V148.6H1123.4V158.1H1122V153.8H1119.2V158.1ZM1126.2 158.1V148.6H1131.8V149.8H1127.6V152.5H1131.3V153.7H1127.6V156.8H1131.8V158.1ZM1134.6 158.1V156.8H1136.5V149.8H1134.6V148.6H1139.8V149.8H1137.9V156.8H1139.8V158.1ZM1145.6 158.2Q1144.7 158.2 1144.1 157.9Q1143.4 157.5 1143 156.9Q1142.7 156.3 1142.7 155.4V151.2Q1142.7 150.3 1143 149.7Q1143.4 149.1 1144.1 148.8Q1144.7 148.4 1145.6 148.4Q1146.5 148.4 1147.1 148.8Q1147.8 149.1 1148.1 149.7Q1148.5 150.3 1148.5 151.2H1147.1Q1147.1 150.5 1146.7 150.1Q1146.3 149.7 1145.6 149.7Q1144.9 149.7 1144.5 150.1Q1144.1 150.5 1144.1 151.2V155.4Q1144.1 156.1 1144.5 156.5Q1144.9 156.9 1145.6 156.9Q1146.3 156.9 1146.7 156.5Q1147.1 156.1 1147.1 155.4V154.3H1145.3V153.1H1148.5V155.4Q1148.5 156.3 1148.1 156.9Q1147.8 157.5 1147.1 157.8Q1146.5 158.2 1145.6 158.2ZM1151.1 158.1V148.6H1152.5V152.5H1155.3V148.6H1156.7V158.1H1155.3V153.8H1152.5V158.1ZM1161.5 158.1V149.8H1158.9V148.5H1165.4V149.8H1162.9V158.1ZM1178.8 154.7Q1178.3 154.7 1178 154.4Q1177.7 154.1 1177.7 153.6Q1177.7 153 1178 152.7Q1178.3 152.4 1178.8 152.4Q1179.4 152.4 1179.7 152.7Q1180 153 1180 153.6Q1180 154.1 1179.7 154.4Q1179.4 154.7 1178.8 154.7ZM1195.5 158.2Q1194.5 158.2 1193.8 157.8Q1193.1 157.4 1192.7 156.7Q1192.4 156 1192.4 155.1Q1192.4 154.4 1192.6 153.7Q1192.8 152.9 1193.2 152.3L1195.5 148.6H1197.1L1194.3 152.9L1194.4 153Q1194.6 152.6 1195.1 152.4Q1195.5 152.2 1196 152.2Q1196.8 152.2 1197.4 152.6Q1197.9 152.9 1198.3 153.6Q1198.6 154.2 1198.6 155.1Q1198.6 156 1198.2 156.7Q1197.8 157.4 1197.1 157.8Q1196.4 158.2 1195.5 158.2ZM1195.5 157Q1196.2 157 1196.7 156.5Q1197.2 156 1197.2 155.1Q1197.2 154.3 1196.7 153.8Q1196.2 153.3 1195.5 153.3Q1194.7 153.3 1194.2 153.8Q1193.7 154.3 1193.7 155.1Q1193.7 156 1194.2 156.5Q1194.7 157 1195.5 157ZM1203.8 158.2Q1202.9 158.2 1202.2 157.9Q1201.5 157.6 1201.2 157Q1200.8 156.4 1200.8 155.6Q1200.8 154.8 1201.3 154.2Q1201.8 153.6 1202.7 153.1L1204.1 152.5Q1204.6 152.2 1204.9 151.8Q1205.2 151.4 1205.2 150.9Q1205.2 150.3 1204.8 150Q1204.4 149.6 1203.8 149.6Q1203.1 149.6 1202.7 150Q1202.4 150.3 1202.4 150.9Q1202.4 151.4 1202.6 151.8Q1202.9 152.2 1203.4 152.4L1204.8 153.1Q1205.8 153.6 1206.3 154.2Q1206.7 154.8 1206.7 155.6Q1206.7 156.8 1205.9 157.5Q1205.1 158.2 1203.8 158.2ZM1203.8 157Q1204.5 157 1204.9 156.6Q1205.4 156.2 1205.4 155.6Q1205.4 155.1 1205.1 154.6Q1204.8 154.2 1204.3 153.9L1202.9 153.3Q1201.9 152.8 1201.5 152.2Q1201 151.7 1201 150.8Q1201 150.1 1201.3 149.6Q1201.7 149 1202.3 148.7Q1202.9 148.4 1203.8 148.4Q1204.6 148.4 1205.3 148.7Q1205.9 149 1206.2 149.6Q1206.6 150.1 1206.6 150.8Q1206.6 151.7 1206.1 152.2Q1205.6 152.8 1204.7 153.3L1203.2 154Q1202.8 154.2 1202.5 154.6Q1202.2 155 1202.2 155.5Q1202.2 156.2 1202.6 156.6Q1203.1 157 1203.8 157ZM1212.1 158.2Q1211.2 158.2 1210.5 157.8Q1209.8 157.4 1209.4 156.7Q1209 156 1209 155.1Q1209 154.4 1209.2 153.7Q1209.4 152.9 1209.8 152.3L1212.1 148.6H1213.7L1210.9 152.9L1211 153Q1211.3 152.6 1211.7 152.4Q1212.1 152.2 1212.7 152.2Q1213.4 152.2 1214 152.6Q1214.6 152.9 1214.9 153.6Q1215.2 154.2 1215.2 155.1Q1215.2 156 1214.8 156.7Q1214.4 157.4 1213.7 157.8Q1213 158.2 1212.1 158.2ZM1212.1 157Q1212.9 157 1213.3 156.5Q1213.8 156 1213.8 155.1Q1213.8 154.3 1213.3 153.8Q1212.9 153.3 1212.1 153.3Q1211.3 153.3 1210.9 153.8Q1210.4 154.3 1210.4 155.1Q1210.4 156 1210.9 156.5Q1211.3 157 1212.1 157Z" style="fill:#6FE6FF" fill-opacity="0.8"/><path d="M1151.1 213V203.5H1153.9Q1155.2 203.5 1156 204.2Q1156.7 204.8 1156.7 206Q1156.7 206.6 1156.5 207.1Q1156.2 207.6 1155.7 207.8Q1155.2 208.1 1154.5 208.1V207.9Q1155.3 207.9 1155.8 208.2Q1156.3 208.5 1156.7 209Q1157 209.6 1157 210.3Q1157 211.1 1156.6 211.7Q1156.3 212.3 1155.6 212.7Q1154.9 213 1154 213ZM1152.4 211.8H1153.9Q1154.7 211.8 1155.1 211.4Q1155.6 211 1155.6 210.3Q1155.6 209.5 1155.1 209.1Q1154.7 208.7 1153.9 208.7H1152.4ZM1152.4 207.5H1153.8Q1154.5 207.5 1155 207.1Q1155.4 206.7 1155.4 206.1Q1155.4 205.5 1155 205.1Q1154.5 204.7 1153.9 204.7H1152.4ZM1158.8 213 1161.3 203.5H1163.1L1165.5 213H1164.1L1163.5 210.6H1160.8L1160.3 213ZM1161.1 209.4H1163.3L1162.6 206.7Q1162.4 206 1162.3 205.4Q1162.2 204.9 1162.2 204.7Q1162.1 204.9 1162 205.4Q1161.9 206 1161.8 206.7ZM1170.5 213.1Q1169.6 213.1 1168.9 212.8Q1168.2 212.5 1167.8 211.9Q1167.4 211.3 1167.4 210.5H1168.8Q1168.8 211.1 1169.3 211.5Q1169.7 211.9 1170.6 211.9Q1171.3 211.9 1171.7 211.5Q1172.2 211.2 1172.2 210.5Q1172.2 210 1171.9 209.6Q1171.6 209.2 1171 209.1L1169.8 208.7Q1168.8 208.4 1168.2 207.7Q1167.7 207 1167.7 206Q1167.7 205.2 1168 204.6Q1168.4 204 1169 203.7Q1169.7 203.4 1170.6 203.4Q1171.9 203.4 1172.6 204.1Q1173.4 204.8 1173.4 206H1172Q1172 205.3 1171.6 205Q1171.2 204.6 1170.5 204.6Q1169.8 204.6 1169.4 204.9Q1169.1 205.3 1169.1 205.9Q1169.1 206.4 1169.3 206.8Q1169.6 207.2 1170.2 207.3L1171.4 207.7Q1172.4 208 1173 208.7Q1173.6 209.5 1173.6 210.5Q1173.6 211.3 1173.2 211.9Q1172.8 212.5 1172.1 212.8Q1171.4 213.1 1170.5 213.1ZM1176.1 213V203.5H1181.7V204.8H1177.5V207.4H1181.3V208.7H1177.5V211.8H1181.7V213ZM1184.7 213V203.5H1186.1V211.7H1190.2V213ZM1192.8 213V211.8H1194.7V204.8H1192.8V203.5H1198.1V204.8H1196.2V211.8H1198.1V213ZM1200.9 213V203.5H1202.7L1205.5 211.4Q1205.4 211 1205.4 210.5Q1205.4 210 1205.3 209.4Q1205.3 208.9 1205.3 208.4V203.5H1206.6V213H1204.9L1202.1 205.1Q1202.1 205.4 1202.2 206Q1202.2 206.5 1202.2 207Q1202.2 207.6 1202.2 208V213ZM1209.4 213V203.5H1215V204.8H1210.8V207.4H1214.5V208.7H1210.8V211.8H1215V213Z" style="fill:#6FE6FF" fill-opacity="0.8"/><path d="M119.8 222.4Q95.2 222.4 82.8 212Q70.5 201.6 70.5 180.4Q70.5 166.6 76.9 157.2Q83.4 147.8 95.5 143.1Q107.7 138.4 124.7 138.4Q135.2 138.4 144.2 140.3Q153.2 142.3 160 146.1Q166.8 149.8 170.5 155.6Q174.2 161.3 174.2 169H150.8Q150.8 165.7 148.8 163.2Q146.7 160.8 143.2 159.3Q139.6 157.8 135.2 157Q130.7 156.2 125.7 156.2Q118.6 156.2 113 157.6Q107.3 159.1 103.3 161.9Q99.3 164.8 97.2 169.1Q95.2 173.3 95.2 179V181.8Q95.2 189.8 98.5 194.9Q101.8 199.9 108.1 202.2Q114.5 204.6 123.7 204.6Q132.1 204.6 138.2 203.1Q144.2 201.6 147.5 198.7Q150.7 195.7 150.7 191.9V191.1H122.4V175.7H174.3V221H160.3L158 211.3Q153.4 215.1 147.6 217.6Q141.8 220.1 134.8 221.2Q127.8 222.4 119.8 222.4ZM183.8 221 223.7 139.8H250.4L290.3 221H264.2L258.1 208H214.7L208.6 221ZM222.7 190.4H250.1L242.8 173.9Q242.3 172.9 241.5 170.8Q240.6 168.7 239.7 166.4Q238.8 164.1 238 162.2Q237.3 160.2 236.9 159.3H236Q235.2 161.4 234 164.2Q232.9 167.1 231.9 169.7Q230.9 172.3 230 173.9ZM300.7 221V139.8H322.2L364.2 177.7Q365.3 178.6 367 180.3Q368.7 181.9 370.5 183.7Q372.3 185.5 373.6 187H374.7Q374.7 184.9 374.6 181.7Q374.6 178.5 374.6 176V139.8H397.2V221H376.1L335 183.9Q332.2 181.5 329.1 178.4Q326.1 175.3 324.2 173.6H323.2Q323.2 175.1 323.3 178.5Q323.4 181.9 323.4 185.8V221ZM461.7 222.4Q437 222.4 424.7 212Q412.3 201.6 412.3 180.4Q412.3 166.6 418.8 157.2Q425.2 147.8 437.4 143.1Q449.5 138.4 466.5 138.4Q477 138.4 486 140.3Q495.1 142.3 501.8 146.1Q508.6 149.8 512.3 155.6Q516.1 161.3 516.1 169H492.7Q492.7 165.7 490.6 163.2Q488.6 160.8 485 159.3Q481.5 157.8 477 157Q472.5 156.2 467.6 156.2Q460.5 156.2 454.8 157.6Q449.2 159.1 445.1 161.9Q441.1 164.8 439.1 169.1Q437 173.3 437 179V181.8Q437 189.8 440.3 194.9Q443.6 199.9 450 202.2Q456.4 204.6 465.6 204.6Q473.9 204.6 480 203.1Q486.1 201.6 489.3 198.7Q492.6 195.7 492.6 191.9V191.1H464.3V175.7H516.2V221H502.1L499.9 211.3Q495.3 215.1 489.4 217.6Q483.6 220.1 476.6 221.2Q469.7 222.4 461.7 222.4ZM525.6 221 565.5 139.8H592.3L632.2 221H606.1L600 208H556.5L550.4 221ZM564.6 190.4H591.9L584.6 173.9Q584.1 172.9 583.3 170.8Q582.5 168.7 581.5 166.4Q580.6 164.1 579.9 162.2Q579.2 160.2 578.7 159.3H577.9Q577.1 161.4 575.9 164.2Q574.7 167.1 573.7 169.7Q572.7 172.3 571.9 173.9ZM642.6 221V139.8H687.9Q702.9 139.8 713.7 144.5Q724.6 149.3 730.3 158.3Q736.1 167.4 736.1 180.4Q736.1 193.5 730.3 202.5Q724.6 211.6 713.7 216.3Q702.9 221 687.9 221ZM666.5 203.2H686.5Q692.1 203.2 696.7 201.7Q701.2 200.2 704.5 197.5Q707.8 194.8 709.6 190.8Q711.5 186.8 711.5 181.7V179Q711.5 173.9 709.6 170Q707.8 166 704.5 163.3Q701.2 160.6 696.7 159.1Q692.1 157.6 686.5 157.6H666.5ZM751.2 221V139.8H775.2V170H823.9V139.8H847.9V221H823.9V189.4H775.2V221ZM858.3 221 898.1 139.8H924.9L964.8 221H938.7L932.6 208H889.2L883 221ZM897.2 190.4H924.6L917.3 173.9Q916.8 172.9 916 170.8Q915.1 168.7 914.2 166.4Q913.2 164.1 912.5 162.2Q911.8 160.2 911.4 159.3H910.5Q909.7 161.4 908.5 164.2Q907.3 167.1 906.3 169.7Q905.3 172.3 904.5 173.9ZM975.2 221V139.8H1042.7Q1051.5 139.8 1057.3 143.5Q1063.1 147.1 1066.1 153.1Q1069 159.1 1069 166.1Q1069 173.8 1065.3 180.1Q1061.7 186.4 1054.4 190.1L1070.9 221H1043.8L1030.3 194H999.2V221ZM999.2 176.3H1034.8Q1039.2 176.3 1041.7 173.7Q1044.3 171.1 1044.3 166.7Q1044.3 163.9 1043.2 161.8Q1042 159.8 1039.9 158.7Q1037.7 157.6 1034.8 157.6H999.2ZM1075.5 221 1115.4 139.8H1142.2L1182.1 221H1156L1149.8 208H1106.4L1100.3 221ZM1114.4 190.4H1141.8L1134.5 173.9Q1134 172.9 1133.2 170.8Q1132.4 168.7 1131.4 166.4Q1130.5 164.1 1129.8 162.2Q1129.1 160.2 1128.6 159.3H1127.8Q1126.9 161.4 1125.8 164.2Q1124.6 167.1 1123.6 169.7Q1122.6 172.3 1121.8 173.9Z" fill="none" stroke="#6FE6FF" stroke-width="1.6"/><path d="M119.8 328.4Q95.2 328.4 82.8 318Q70.5 307.6 70.5 286.4Q70.5 272.6 76.9 263.2Q83.4 253.8 95.5 249.1Q107.7 244.4 124.7 244.4Q135.2 244.4 144.2 246.3Q153.2 248.3 160 252.1Q166.8 255.8 170.5 261.6Q174.2 267.3 174.2 275H150.8Q150.8 271.7 148.8 269.2Q146.7 266.8 143.2 265.3Q139.6 263.8 135.2 263Q130.7 262.2 125.7 262.2Q118.6 262.2 113 263.6Q107.3 265.1 103.3 267.9Q99.3 270.8 97.2 275.1Q95.2 279.3 95.2 285V287.8Q95.2 295.8 98.5 300.9Q101.8 305.9 108.1 308.2Q114.5 310.6 123.7 310.6Q132.1 310.6 138.2 309.1Q144.2 307.6 147.5 304.7Q150.7 301.7 150.7 297.9V297.1H122.4V281.7H174.3V327H160.3L158 317.3Q153.4 321.1 147.6 323.6Q141.8 326.1 134.8 327.2Q127.8 328.4 119.8 328.4ZM241.7 328.4Q225.4 328.4 213.4 323.4Q201.5 318.4 195 309Q188.5 299.6 188.5 286.4Q188.5 273.2 195 263.8Q201.5 254.4 213.4 249.4Q225.4 244.4 241.7 244.4Q258.2 244.4 270.1 249.4Q282.1 254.4 288.6 263.8Q295 273.2 295 286.4Q295 299.6 288.6 309Q282.1 318.4 270.1 323.4Q258.2 328.4 241.7 328.4ZM241.7 310.6Q248.1 310.6 253.3 309.1Q258.6 307.5 262.4 304.6Q266.1 301.6 268.2 297.3Q270.3 293 270.3 287.7V284.9Q270.3 279.7 268.2 275.4Q266.1 271.2 262.4 268.2Q258.6 265.3 253.3 263.8Q248.1 262.2 241.7 262.2Q235.3 262.2 230.1 263.8Q225 265.3 221.1 268.2Q217.3 271.2 215.3 275.4Q213.3 279.7 213.3 284.9V287.7Q213.3 293 215.3 297.3Q217.3 301.6 221.1 304.6Q225 307.5 230.1 309.1Q235.3 310.6 241.7 310.6ZM359.8 328.4Q343.5 328.4 331.6 323.4Q319.6 318.4 313.1 309Q306.6 299.6 306.6 286.4Q306.6 273.2 313.1 263.8Q319.6 254.4 331.6 249.4Q343.5 244.4 359.8 244.4Q376.3 244.4 388.3 249.4Q400.2 254.4 406.7 263.8Q413.2 273.2 413.2 286.4Q413.2 299.6 406.7 309Q400.2 318.4 388.3 323.4Q376.3 328.4 359.8 328.4ZM359.8 310.6Q366.2 310.6 371.4 309.1Q376.7 307.5 380.5 304.6Q384.3 301.6 386.3 297.3Q388.4 293 388.4 287.7V284.9Q388.4 279.7 386.3 275.4Q384.3 271.2 380.5 268.2Q376.7 265.3 371.4 263.8Q366.2 262.2 359.8 262.2Q353.5 262.2 348.3 263.8Q343.1 265.3 339.2 268.2Q335.4 271.2 333.4 275.4Q331.4 279.7 331.4 284.9V287.7Q331.4 293 333.4 297.3Q335.4 301.6 339.2 304.6Q343.1 307.5 348.3 309.1Q353.5 310.6 359.8 310.6ZM456.2 327V265.2H421.1V245.8H515.5V265.2H480.3V327ZM526.9 327V245.8H550.9V327Z" fill="none" stroke="#6FE6FF" stroke-width="1.6"/><path d="M825.2 236.2Q824 236.2 823.1 235.7Q822.3 235.3 821.8 234.5Q821.3 233.7 821.3 232.5V230.1Q821.3 229 821.8 228.2Q822.3 227.3 823.1 226.9Q824 226.5 825.2 226.5Q826.9 226.5 827.9 227.4Q828.9 228.2 828.9 229.8H827.1Q827.1 229 826.5 228.5Q826 228.1 825.2 228.1Q824.2 228.1 823.7 228.6Q823.1 229.1 823.1 230.1V232.5Q823.1 233.5 823.7 234Q824.2 234.6 825.2 234.6Q826 234.6 826.5 234.1Q827.1 233.7 827.1 232.9H828.9Q828.9 234.4 827.9 235.3Q826.9 236.2 825.2 236.2ZM836 236.2Q834.8 236.2 834 235.7Q833.1 235.3 832.7 234.5Q832.2 233.6 832.2 232.5V230.1Q832.2 229 832.7 228.2Q833.1 227.4 834 226.9Q834.8 226.5 836 226.5Q837.1 226.5 838 226.9Q838.8 227.4 839.3 228.2Q839.8 229 839.8 230.1V232.5Q839.8 233.6 839.3 234.5Q838.8 235.3 838 235.7Q837.1 236.2 836 236.2ZM836 234.5Q836.9 234.5 837.4 234Q837.9 233.5 837.9 232.5V230.1Q837.9 229.1 837.4 228.6Q836.9 228.1 836 228.1Q835.1 228.1 834.5 228.6Q834 229.1 834 230.1V232.5Q834 233.5 834.5 234Q835.1 234.5 836 234.5ZM843.2 236V226.7H845V228.4H845.4L845 228.9Q845 227.7 845.7 227.1Q846.3 226.5 847.5 226.5Q848.9 226.5 849.7 227.4Q850.6 228.3 850.6 229.8V236H848.7V230Q848.7 229.1 848.2 228.6Q847.7 228.1 846.9 228.1Q846 228.1 845.5 228.6Q845 229.1 845 230.1V236ZM857.4 236.2Q856.4 236.2 855.7 235.8Q854.9 235.5 854.5 234.9Q854 234.4 854 233.6H855.8Q855.9 234 856.3 234.3Q856.7 234.6 857.4 234.6H858.1Q859 234.6 859.4 234.3Q859.8 233.9 859.8 233.4Q859.8 232.8 859.4 232.5Q859.1 232.2 858.3 232.1L857.1 231.9Q855.6 231.7 854.9 231Q854.2 230.4 854.2 229.2Q854.2 227.9 855 227.2Q855.9 226.5 857.5 226.5H858.2Q859.6 226.5 860.5 227.2Q861.4 227.8 861.5 229H859.7Q859.6 228.6 859.2 228.3Q858.8 228 858.2 228H857.5Q856.7 228 856.4 228.3Q856 228.6 856 229.2Q856 229.7 856.3 230Q856.7 230.2 857.3 230.3L858.6 230.5Q860.2 230.8 860.9 231.4Q861.6 232.1 861.6 233.3Q861.6 234.7 860.8 235.4Q859.9 236.2 858.1 236.2ZM869.6 236Q868.4 236 867.7 235.3Q866.9 234.6 866.9 233.4V228.3H864.4V226.7H866.9V224H868.8V226.7H872.4V228.3H868.8V233.4Q868.8 234.3 869.7 234.3H872.3V236ZM890.1 236.2Q889.1 236.2 888.3 235.8Q887.5 235.5 887.1 234.9Q886.7 234.4 886.6 233.6H888.4Q888.5 234 888.9 234.3Q889.4 234.6 890.1 234.6H890.8Q891.6 234.6 892 234.3Q892.5 233.9 892.5 233.4Q892.5 232.8 892.1 232.5Q891.7 232.2 891 232.1L889.8 231.9Q888.3 231.7 887.5 231Q886.8 230.4 886.8 229.2Q886.8 227.9 887.7 227.2Q888.5 226.5 890.2 226.5H890.8Q892.3 226.5 893.2 227.2Q894 227.8 894.2 229H892.3Q892.2 228.6 891.9 228.3Q891.5 228 890.8 228H890.2Q889.4 228 889 228.3Q888.6 228.6 888.6 229.2Q888.6 229.7 889 230Q889.3 230.2 890 230.3L891.2 230.5Q892.8 230.8 893.5 231.4Q894.3 232.1 894.3 233.3Q894.3 234.7 893.4 235.4Q892.5 236.2 890.8 236.2ZM902.3 236Q901 236 900.3 235.3Q899.6 234.6 899.6 233.4V228.3H897V226.7H899.6V224H901.4V226.7H905.1V228.3H901.4V233.4Q901.4 234.3 902.3 234.3H904.9V236ZM911.2 236.2Q909.7 236.2 908.9 235.4Q908.1 234.7 908.1 233.3Q908.1 232 909 231.3Q909.8 230.5 911.4 230.5H914V229.6Q914 228.9 913.5 228.5Q913.1 228 912.2 228Q911.4 228 910.9 228.4Q910.4 228.7 910.3 229.2H908.5Q908.7 228 909.7 227.2Q910.7 226.5 912.2 226.5Q913.9 226.5 914.9 227.3Q915.8 228.2 915.8 229.6V236H914.1V234.3H913.8L914.1 233.9Q914.1 235 913.3 235.6Q912.5 236.2 911.2 236.2ZM911.7 234.8Q912.7 234.8 913.4 234.3Q914 233.8 914 233V231.8H911.4Q910.7 231.8 910.3 232.1Q909.9 232.5 909.9 233.2Q909.9 233.9 910.4 234.3Q910.9 234.8 911.7 234.8ZM923.1 236.2Q921.9 236.2 921.1 235.7Q920.2 235.3 919.7 234.5Q919.2 233.7 919.2 232.5V230.1Q919.2 229 919.7 228.2Q920.2 227.3 921.1 226.9Q921.9 226.5 923.1 226.5Q924.8 226.5 925.8 227.4Q926.8 228.2 926.9 229.8H925Q925 229 924.5 228.5Q924 228.1 923.1 228.1Q922.2 228.1 921.6 228.6Q921.1 229.1 921.1 230.1V232.5Q921.1 233.5 921.6 234Q922.2 234.6 923.1 234.6Q924 234.6 924.5 234.1Q925 233.7 925 232.9H926.9Q926.8 234.4 925.8 235.3Q924.8 236.2 923.1 236.2ZM930.3 236V223.6H932.1V230.4H933.8L936.2 226.7H938.3L935.3 231.1L938.4 236H936.3L933.8 232H932.1V236ZM952 229.1V227.5H959.3V229.1ZM952 233.3V231.6H959.3V233.3ZM975.6 237.9V221.9H980.1V223.6H977.5V236.2H980.1V237.9Z" style="fill:#6FE6FF"/><path d="M847.9 252.7 847.7 249.5V247.6H849.6V249.5L849.4 252.7ZM844.3 252.7 844.1 249.5V247.6H846V249.5L845.8 252.7ZM854 260V258.3H857.3V252.3H854.4V250.7H859.1V258.3H862.1V260ZM858 249Q857.4 249 857.1 248.7Q856.7 248.4 856.7 247.9Q856.7 247.3 857.1 247Q857.4 246.7 858 246.7Q858.6 246.7 859 247Q859.3 247.3 859.3 247.9Q859.3 248.4 859 248.7Q858.6 249 858 249ZM864.9 260V250.7H866.8V252.4H867.2L866.8 252.9Q866.8 251.7 867.4 251.1Q868.1 250.5 869.3 250.5Q870.7 250.5 871.5 251.4Q872.3 252.3 872.3 253.8V260H870.5V254Q870.5 253.1 870 252.6Q869.5 252.1 868.7 252.1Q867.8 252.1 867.3 252.6Q866.8 253.1 866.8 254.1V260ZM880.5 260Q879.2 260 878.5 259.3Q877.8 258.6 877.8 257.4V252.3H875.2V250.7H877.8V248H879.7V250.7H883.3V252.3H879.7V257.4Q879.7 258.3 880.6 258.3H883.1V260ZM890.4 260.2Q889.2 260.2 888.4 259.7Q887.5 259.3 887.1 258.5Q886.6 257.6 886.6 256.5V254.1Q886.6 253 887.1 252.2Q887.5 251.4 888.4 250.9Q889.2 250.5 890.4 250.5Q891.5 250.5 892.4 250.9Q893.2 251.4 893.7 252.2Q894.2 253 894.2 254.1V255.8H888.4V256.5Q888.4 257.6 888.9 258.1Q889.4 258.7 890.4 258.7Q891.2 258.7 891.7 258.4Q892.2 258.1 892.3 257.6H894.1Q893.9 258.8 892.9 259.5Q891.9 260.2 890.4 260.2ZM892.4 254.7V254.1Q892.4 253.1 891.9 252.5Q891.4 251.9 890.4 251.9Q889.4 251.9 888.9 252.5Q888.4 253.1 888.4 254.1V254.5L892.5 254.5ZM897.9 260V250.7H899.7V252.4H900.1L899.5 253.5Q899.5 252 900.2 251.3Q900.9 250.5 902.2 250.5Q903.7 250.5 904.5 251.4Q905.4 252.3 905.4 253.9V254.6H903.5V254.1Q903.5 253.1 903 252.6Q902.5 252 901.6 252Q900.7 252 900.2 252.6Q899.7 253.1 899.7 254.1V260ZM910.7 260V253.3H908V251.6H910.7V250.1Q910.7 248.9 911.4 248.3Q912.2 247.6 913.4 247.6H916.2V249.2H913.5Q913 249.2 912.7 249.5Q912.5 249.7 912.5 250.1V251.6H916.2V253.3H912.5V260ZM922.1 260.2Q920.6 260.2 919.8 259.4Q918.9 258.7 918.9 257.3Q918.9 256 919.8 255.3Q920.7 254.5 922.3 254.5H924.9V253.6Q924.9 252.9 924.4 252.5Q923.9 252 923.1 252Q922.3 252 921.8 252.4Q921.3 252.7 921.2 253.2H919.4Q919.6 252 920.6 251.2Q921.6 250.5 923.1 250.5Q924.8 250.5 925.8 251.3Q926.7 252.2 926.7 253.6V260H924.9V258.3H924.6L924.9 257.9Q924.9 259 924.2 259.6Q923.4 260.2 922.1 260.2ZM922.6 258.8Q923.6 258.8 924.3 258.3Q924.9 257.8 924.9 257V255.8H922.3Q921.6 255.8 921.2 256.1Q920.8 256.5 920.8 257.2Q920.8 257.9 921.3 258.3Q921.8 258.8 922.6 258.8ZM934 260.2Q932.8 260.2 931.9 259.7Q931.1 259.3 930.6 258.5Q930.1 257.7 930.1 256.5V254.1Q930.1 253 930.6 252.2Q931.1 251.3 931.9 250.9Q932.8 250.5 934 250.5Q935.7 250.5 936.7 251.4Q937.7 252.2 937.7 253.8H935.9Q935.9 253 935.3 252.5Q934.8 252.1 934 252.1Q933 252.1 932.5 252.6Q931.9 253.1 931.9 254.1V256.5Q931.9 257.5 932.5 258Q933 258.6 934 258.6Q934.8 258.6 935.3 258.1Q935.9 257.7 935.9 256.9H937.7Q937.7 258.4 936.7 259.3Q935.7 260.2 934 260.2ZM944.8 260.2Q943.6 260.2 942.8 259.7Q941.9 259.3 941.5 258.5Q941 257.6 941 256.5V254.1Q941 253 941.5 252.2Q941.9 251.4 942.8 250.9Q943.6 250.5 944.8 250.5Q945.9 250.5 946.8 250.9Q947.6 251.4 948.1 252.2Q948.6 253 948.6 254.1V255.8H942.8V256.5Q942.8 257.6 943.3 258.1Q943.8 258.7 944.8 258.7Q945.6 258.7 946.1 258.4Q946.6 258.1 946.7 257.6H948.5Q948.3 258.8 947.3 259.5Q946.3 260.2 944.8 260.2ZM946.8 254.7V254.1Q946.8 253.1 946.3 252.5Q945.8 251.9 944.8 251.9Q943.8 251.9 943.3 252.5Q942.8 253.1 942.8 254.1V254.5L946.9 254.5ZM956.7 252.7 956.5 249.5V247.6H958.4V249.5L958.2 252.7ZM953.1 252.7 952.9 249.5V247.6H954.8V249.5L954.6 252.7ZM964.1 262.7 965.5 257.4H967.9L965.7 262.7Z" style="fill:#6FE6FF"/><path d="M847.9 276.7 847.7 273.5V271.6H849.6V273.5L849.4 276.7ZM844.3 276.7 844.1 273.5V271.6H846V273.5L845.8 276.7ZM857.1 284.2Q855.7 284.2 854.8 283.2Q854 282.3 854 280.7V278Q854 276.4 854.8 275.4Q855.7 274.5 857.1 274.5Q858.2 274.5 858.9 275.1Q859.6 275.8 859.6 276.9L859.2 276.4H859.6L859.6 274.3V271.6H861.4V284H859.6V282.2H859.2L859.6 281.8Q859.6 282.9 858.9 283.5Q858.2 284.2 857.1 284.2ZM857.7 282.6Q858.6 282.6 859.1 282Q859.6 281.5 859.6 280.5V278.1Q859.6 277.1 859.1 276.6Q858.6 276.1 857.7 276.1Q856.8 276.1 856.3 276.6Q855.8 277.1 855.8 278.1V280.5Q855.8 281.5 856.3 282.1Q856.8 282.6 857.7 282.6ZM868.6 284.2Q867.5 284.2 866.6 283.7Q865.8 283.3 865.3 282.5Q864.8 281.6 864.8 280.5V278.1Q864.8 277 865.3 276.2Q865.8 275.4 866.6 274.9Q867.5 274.5 868.6 274.5Q869.8 274.5 870.6 274.9Q871.5 275.4 871.9 276.2Q872.4 277 872.4 278.1V279.8H866.6V280.5Q866.6 281.6 867.1 282.1Q867.7 282.7 868.6 282.7Q869.4 282.7 869.9 282.4Q870.4 282.1 870.5 281.6H872.4Q872.2 282.8 871.1 283.5Q870.1 284.2 868.6 284.2ZM870.6 278.7V278.1Q870.6 277.1 870.1 276.5Q869.6 275.9 868.6 275.9Q867.7 275.9 867.1 276.5Q866.6 277.1 866.6 278.1V278.5L870.8 278.5ZM878.3 284 875.2 274.6H877.1L879 280.6Q879.2 281.2 879.3 281.7Q879.5 282.2 879.5 282.5Q879.6 282.2 879.8 281.7Q879.9 281.2 880.1 280.6L881.9 274.6H883.8L880.7 284ZM886.7 284V282.3H889.9V276.3H887.1V274.6H891.7V282.3H894.7V284ZM890.7 273Q890.1 273 889.7 272.7Q889.3 272.4 889.3 271.9Q889.3 271.3 889.7 271Q890.1 270.7 890.7 270.7Q891.2 270.7 891.6 271Q892 271.3 892 271.9Q892 272.4 891.6 272.7Q891.2 273 890.7 273ZM901.3 284.2Q900.2 284.2 899.3 283.7Q898.4 283.3 898 282.5Q897.5 281.7 897.5 280.5V278.1Q897.5 277 898 276.2Q898.4 275.3 899.3 274.9Q900.2 274.5 901.3 274.5Q903 274.5 904 275.4Q905.1 276.2 905.1 277.8H903.3Q903.2 277 902.7 276.5Q902.2 276.1 901.3 276.1Q900.4 276.1 899.8 276.6Q899.3 277.1 899.3 278.1V280.5Q899.3 281.5 899.8 282Q900.4 282.6 901.3 282.6Q902.2 282.6 902.7 282.1Q903.2 281.7 903.3 280.9H905.1Q905.1 282.4 904 283.3Q903 284.2 901.3 284.2ZM912.1 284.2Q911 284.2 910.1 283.7Q909.3 283.3 908.8 282.5Q908.4 281.6 908.4 280.5V278.1Q908.4 277 908.8 276.2Q909.3 275.4 910.1 274.9Q911 274.5 912.1 274.5Q913.3 274.5 914.1 274.9Q915 275.4 915.5 276.2Q915.9 277 915.9 278.1V279.8H910.1V280.5Q910.1 281.6 910.7 282.1Q911.2 282.7 912.2 282.7Q913 282.7 913.4 282.4Q913.9 282.1 914.1 281.6H915.9Q915.7 282.8 914.7 283.5Q913.6 284.2 912.1 284.2ZM914.1 278.7V278.1Q914.1 277.1 913.6 276.5Q913.1 275.9 912.1 275.9Q911.2 275.9 910.7 276.5Q910.1 277.1 910.1 278.1V278.5L914.3 278.5ZM922.7 284.2Q921.7 284.2 920.9 283.8Q920.2 283.5 919.7 282.9Q919.3 282.4 919.2 281.6H921.1Q921.1 282 921.6 282.3Q922 282.6 922.7 282.6H923.4Q924.3 282.6 924.7 282.3Q925.1 281.9 925.1 281.4Q925.1 280.8 924.7 280.5Q924.3 280.2 923.6 280.1L922.4 279.9Q920.9 279.7 920.2 279Q919.5 278.4 919.5 277.2Q919.5 275.9 920.3 275.2Q921.2 274.5 922.8 274.5H923.5Q924.9 274.5 925.8 275.2Q926.7 275.8 926.8 277H925Q924.9 276.6 924.5 276.3Q924.1 276 923.5 276H922.8Q922 276 921.7 276.3Q921.3 276.6 921.3 277.2Q921.3 277.7 921.6 278Q921.9 278.2 922.6 278.3L923.9 278.5Q925.4 278.8 926.2 279.4Q926.9 280.1 926.9 281.3Q926.9 282.7 926 283.4Q925.2 284.2 923.4 284.2ZM935 276.7 934.8 273.5V271.6H936.7V273.5L936.4 276.7ZM931.4 276.7 931.1 273.5V271.6H933V273.5L932.9 276.7ZM942.4 286.7 943.7 281.4H946.2L944 286.7Z" style="fill:#6FE6FF"/><path d="M847.9 300.7 847.7 297.5V295.6H849.6V297.5L849.4 300.7ZM844.3 300.7 844.1 297.5V295.6H846V297.5L845.8 300.7ZM857.4 308.2Q856.4 308.2 855.7 307.8Q854.9 307.5 854.5 306.9Q854 306.4 854 305.6H855.8Q855.9 306 856.3 306.3Q856.7 306.6 857.4 306.6H858.1Q859 306.6 859.4 306.3Q859.8 305.9 859.8 305.4Q859.8 304.8 859.4 304.5Q859.1 304.2 858.3 304.1L857.1 303.9Q855.6 303.7 854.9 303Q854.2 302.4 854.2 301.2Q854.2 299.9 855 299.2Q855.9 298.5 857.5 298.5H858.2Q859.6 298.5 860.5 299.2Q861.4 299.8 861.5 301H859.7Q859.6 300.6 859.2 300.3Q858.8 300 858.2 300H857.5Q856.7 300 856.4 300.3Q856 300.6 856 301.2Q856 301.7 856.3 302Q856.7 302.2 857.3 302.3L858.6 302.5Q860.2 302.8 860.9 303.4Q861.6 304.1 861.6 305.3Q861.6 306.7 860.8 307.4Q859.9 308.2 858.1 308.2ZM868.6 308.2Q867.5 308.2 866.6 307.7Q865.8 307.3 865.3 306.5Q864.8 305.6 864.8 304.5V302.1Q864.8 301 865.3 300.2Q865.8 299.4 866.6 298.9Q867.5 298.5 868.6 298.5Q869.8 298.5 870.6 298.9Q871.5 299.4 871.9 300.2Q872.4 301 872.4 302.1V303.8H866.6V304.5Q866.6 305.6 867.1 306.1Q867.7 306.7 868.6 306.7Q869.4 306.7 869.9 306.4Q870.4 306.1 870.5 305.6H872.4Q872.2 306.8 871.1 307.5Q870.1 308.2 868.6 308.2ZM870.6 302.7V302.1Q870.6 301.1 870.1 300.5Q869.6 299.9 868.6 299.9Q867.7 299.9 867.1 300.5Q866.6 301.1 866.6 302.1V302.5L870.8 302.5ZM876.1 308V298.6H877.9V300.4H878.3L877.8 301.5Q877.8 300 878.4 299.3Q879.1 298.5 880.4 298.5Q881.9 298.5 882.8 299.4Q883.7 300.3 883.7 301.9V302.6H881.8V302.1Q881.8 301.1 881.3 300.6Q880.8 300 879.9 300Q879 300 878.5 300.6Q878 301.1 878 302.1V308ZM889.2 308 886.1 298.6H887.9L889.9 304.6Q890.1 305.2 890.2 305.7Q890.3 306.2 890.4 306.5Q890.5 306.2 890.6 305.7Q890.8 305.2 890.9 304.6L892.8 298.6H894.7L891.6 308ZM897.5 308V306.3H900.8V300.3H898V298.6H902.6V306.3H905.6V308ZM901.5 297Q900.9 297 900.6 296.7Q900.2 296.4 900.2 295.9Q900.2 295.3 900.6 295Q900.9 294.7 901.5 294.7Q902.1 294.7 902.5 295Q902.8 295.3 902.8 295.9Q902.8 296.4 902.5 296.7Q902.1 297 901.5 297ZM912.2 308.2Q911.1 308.2 910.2 307.7Q909.3 307.3 908.8 306.5Q908.4 305.7 908.4 304.5V302.1Q908.4 301 908.8 300.2Q909.3 299.3 910.2 298.9Q911.1 298.5 912.2 298.5Q913.9 298.5 914.9 299.4Q915.9 300.2 916 301.8H914.1Q914.1 301 913.6 300.5Q913.1 300.1 912.2 300.1Q911.3 300.1 910.7 300.6Q910.2 301.1 910.2 302.1V304.5Q910.2 305.5 910.7 306Q911.3 306.6 912.2 306.6Q913.1 306.6 913.6 306.1Q914.1 305.7 914.1 304.9H916Q915.9 306.4 914.9 307.3Q913.9 308.2 912.2 308.2ZM923 308.2Q921.9 308.2 921 307.7Q920.2 307.3 919.7 306.5Q919.2 305.6 919.2 304.5V302.1Q919.2 301 919.7 300.2Q920.2 299.4 921 298.9Q921.9 298.5 923 298.5Q924.2 298.5 925 298.9Q925.9 299.4 926.3 300.2Q926.8 301 926.8 302.1V303.8H921V304.5Q921 305.6 921.5 306.1Q922.1 306.7 923 306.7Q923.8 306.7 924.3 306.4Q924.8 306.1 924.9 305.6H926.8Q926.6 306.8 925.5 307.5Q924.5 308.2 923 308.2ZM925 302.7V302.1Q925 301.1 924.5 300.5Q924 299.9 923 299.9Q922.1 299.9 921.5 300.5Q921 301.1 921 302.1V302.5L925.2 302.5ZM933.6 308.2Q932.6 308.2 931.8 307.8Q931.1 307.5 930.6 306.9Q930.2 306.4 930.1 305.6H932Q932 306 932.5 306.3Q932.9 306.6 933.6 306.6H934.3Q935.1 306.6 935.6 306.3Q936 305.9 936 305.4Q936 304.8 935.6 304.5Q935.2 304.2 934.5 304.1L933.3 303.9Q931.8 303.7 931.1 303Q930.4 302.4 930.4 301.2Q930.4 299.9 931.2 299.2Q932 298.5 933.7 298.5H934.3Q935.8 298.5 936.7 299.2Q937.6 299.8 937.7 301H935.8Q935.8 300.6 935.4 300.3Q935 300 934.3 300H933.7Q932.9 300 932.5 300.3Q932.2 300.6 932.2 301.2Q932.2 301.7 932.5 302Q932.8 302.2 933.5 302.3L934.7 302.5Q936.3 302.8 937.1 303.4Q937.8 304.1 937.8 305.3Q937.8 306.7 936.9 307.4Q936 308.2 934.3 308.2ZM945.8 300.7 945.6 297.5V295.6H947.5V297.5L947.3 300.7ZM942.2 300.7 942 297.5V295.6H943.9V297.5L943.7 300.7ZM953.2 310.7 954.6 305.4H957.1L954.8 310.7Z" style="fill:#6FE6FF"/><path d="M847.9 324.7 847.7 321.5V319.6H849.6V321.5L849.4 324.7ZM844.3 324.7 844.1 321.5V319.6H846V321.5L845.8 324.7ZM857.1 332.2Q855.7 332.2 854.8 331.2Q854 330.3 854 328.7V326Q854 324.4 854.8 323.4Q855.7 322.5 857.1 322.5Q858.2 322.5 858.9 323.1Q859.6 323.8 859.6 324.9L859.2 324.4H859.6L859.6 322.3V319.6H861.4V332H859.6V330.2H859.2L859.6 329.8Q859.6 330.9 858.9 331.5Q858.2 332.2 857.1 332.2ZM857.7 330.6Q858.6 330.6 859.1 330Q859.6 329.5 859.6 328.5V326.1Q859.6 325.1 859.1 324.6Q858.6 324.1 857.7 324.1Q856.8 324.1 856.3 324.6Q855.8 325.1 855.8 326.1V328.5Q855.8 329.5 856.3 330.1Q856.8 330.6 857.7 330.6ZM867.7 332.2Q866.2 332.2 865.4 331.4Q864.5 330.7 864.5 329.3Q864.5 328 865.4 327.3Q866.3 326.5 867.9 326.5H870.5V325.6Q870.5 324.9 870 324.5Q869.5 324 868.7 324Q867.9 324 867.4 324.4Q866.9 324.7 866.8 325.2H865Q865.2 324 866.2 323.2Q867.2 322.5 868.7 322.5Q870.4 322.5 871.4 323.3Q872.3 324.2 872.3 325.6V332H870.5V330.3H870.2L870.5 329.9Q870.5 331 869.8 331.6Q869 332.2 867.7 332.2ZM868.2 330.8Q869.2 330.8 869.9 330.3Q870.5 329.8 870.5 329V327.8H867.9Q867.2 327.8 866.8 328.1Q866.4 328.5 866.4 329.2Q866.4 329.9 866.9 330.3Q867.4 330.8 868.2 330.8ZM880.5 332Q879.2 332 878.5 331.3Q877.8 330.6 877.8 329.4V324.3H875.2V322.6H877.8V320H879.7V322.6H883.3V324.3H879.7V329.4Q879.7 330.3 880.6 330.3H883.1V332ZM889.4 332.2Q888 332.2 887.1 331.4Q886.3 330.7 886.3 329.3Q886.3 328 887.2 327.3Q888.1 326.5 889.6 326.5H892.2V325.6Q892.2 324.9 891.8 324.5Q891.3 324 890.4 324Q889.7 324 889.2 324.4Q888.6 324.7 888.6 325.2H886.8Q886.9 324 887.9 323.2Q888.9 322.5 890.5 322.5Q892.1 322.5 893.1 323.3Q894.1 324.2 894.1 325.6V332H892.3V330.3H892L892.3 329.9Q892.3 331 891.5 331.6Q890.7 332.2 889.4 332.2ZM890 330.8Q891 330.8 891.6 330.3Q892.2 329.8 892.2 329V327.8H889.7Q889 327.8 888.6 328.1Q888.1 328.5 888.1 329.2Q888.1 329.9 888.6 330.3Q889.1 330.8 890 330.8ZM902.3 324.7 902.1 321.5V319.6H904V321.5L903.8 324.7ZM898.7 324.7 898.5 321.5V319.6H900.4V321.5L900.2 324.7ZM909.7 334.7 911.1 329.4H913.5L911.3 334.7Z" style="fill:#6FE6FF"/><path d="M847.9 348.7 847.7 345.5V343.6H849.6V345.5L849.4 348.7ZM844.3 348.7 844.1 345.5V343.6H846V345.5L845.8 348.7ZM854 356V354.3H857.3V348.3H854.4V346.6H859.1V354.3H862.1V356ZM858 345Q857.4 345 857.1 344.7Q856.7 344.4 856.7 343.9Q856.7 343.3 857.1 343Q857.4 342.7 858 342.7Q858.6 342.7 859 343Q859.3 343.3 859.3 343.9Q859.3 344.4 859 344.7Q858.6 345 858 345ZM864.9 356V346.6H866.8V348.4H867.2L866.8 348.9Q866.8 347.7 867.4 347.1Q868.1 346.5 869.3 346.5Q870.7 346.5 871.5 347.4Q872.3 348.3 872.3 349.8V356H870.5V350Q870.5 349.1 870 348.6Q869.5 348.1 868.7 348.1Q867.8 348.1 867.3 348.6Q866.8 349.1 866.8 350.1V356ZM880.5 356Q879.2 356 878.5 355.3Q877.8 354.6 877.8 353.4V348.3H875.2V346.6H877.8V344H879.7V346.6H883.3V348.3H879.7V353.4Q879.7 354.3 880.6 354.3H883.1V356ZM890.4 356.2Q889.2 356.2 888.4 355.7Q887.5 355.3 887.1 354.5Q886.6 353.6 886.6 352.5V350.1Q886.6 349 887.1 348.2Q887.5 347.4 888.4 346.9Q889.2 346.5 890.4 346.5Q891.5 346.5 892.4 346.9Q893.2 347.4 893.7 348.2Q894.2 349 894.2 350.1V351.8H888.4V352.5Q888.4 353.6 888.9 354.1Q889.4 354.7 890.4 354.7Q891.2 354.7 891.7 354.4Q892.2 354.1 892.3 353.6H894.1Q893.9 354.8 892.9 355.5Q891.9 356.2 890.4 356.2ZM892.4 350.7V350.1Q892.4 349.1 891.9 348.5Q891.4 347.9 890.4 347.9Q889.4 347.9 888.9 348.5Q888.4 349.1 888.4 350.1V350.5L892.5 350.5ZM902.6 356Q901.7 356 901.1 355.7Q900.4 355.3 900.1 354.7Q899.7 354 899.7 353.2V345.3H896.7V343.6H901.5V353.2Q901.5 353.7 901.9 354Q902.2 354.3 902.7 354.3H905.6V356ZM913.5 356Q912.6 356 912 355.7Q911.3 355.3 911 354.7Q910.6 354 910.6 353.2V345.3H907.5V343.6H912.4V353.2Q912.4 353.7 912.7 354Q913 354.3 913.6 354.3H916.5V356ZM919.3 356V354.3H922.6V348.3H919.7V346.6H924.4V354.3H927.4V356ZM923.3 345Q922.7 345 922.3 344.7Q922 344.4 922 343.9Q922 343.3 922.3 343Q922.7 342.7 923.3 342.7Q923.9 342.7 924.2 343Q924.6 343.3 924.6 343.9Q924.6 344.4 924.2 344.7Q923.9 345 923.3 345ZM931.5 359.1V357.5H934.3Q935 357.5 935.4 357.1Q935.7 356.8 935.7 356.1V355.2L935.8 353.5H935.4L935.8 353.1Q935.8 354.2 935.1 354.8Q934.4 355.4 933.3 355.4Q931.8 355.4 931 354.5Q930.2 353.5 930.2 351.9V350Q930.2 348.4 931 347.4Q931.8 346.5 933.3 346.5Q934.4 346.5 935.1 347.1Q935.8 347.7 935.8 348.8L935.4 348.4H935.8L935.7 346.6H937.6V356.2Q937.6 357.5 936.7 358.3Q935.9 359.1 934.3 359.1ZM933.9 353.8Q934.7 353.8 935.2 353.3Q935.7 352.8 935.7 351.8V350.1Q935.7 349.1 935.2 348.6Q934.7 348.1 933.9 348.1Q933 348.1 932.5 348.6Q932 349.1 932 350.1V351.8Q932 352.8 932.5 353.3Q933 353.8 933.9 353.8ZM944.8 356.2Q943.6 356.2 942.8 355.7Q941.9 355.3 941.5 354.5Q941 353.6 941 352.5V350.1Q941 349 941.5 348.2Q941.9 347.4 942.8 346.9Q943.6 346.5 944.8 346.5Q945.9 346.5 946.8 346.9Q947.6 347.4 948.1 348.2Q948.6 349 948.6 350.1V351.8H942.8V352.5Q942.8 353.6 943.3 354.1Q943.8 354.7 944.8 354.7Q945.6 354.7 946.1 354.4Q946.6 354.1 946.7 353.6H948.5Q948.3 354.8 947.3 355.5Q946.3 356.2 944.8 356.2ZM946.8 350.7V350.1Q946.8 349.1 946.3 348.5Q945.8 347.9 944.8 347.9Q943.8 347.9 943.3 348.5Q942.8 349.1 942.8 350.1V350.5L946.9 350.5ZM952 356V346.6H953.8V348.4H954.2L953.8 348.9Q953.8 347.7 954.5 347.1Q955.1 346.5 956.3 346.5Q957.7 346.5 958.5 347.4Q959.4 348.3 959.4 349.8V356H957.5V350Q957.5 349.1 957 348.6Q956.5 348.1 955.7 348.1Q954.8 348.1 954.3 348.6Q953.8 349.1 953.8 350.1V356ZM966.6 356.2Q965.5 356.2 964.6 355.7Q963.7 355.3 963.2 354.5Q962.8 353.7 962.8 352.5V350.1Q962.8 349 963.2 348.2Q963.7 347.3 964.6 346.9Q965.5 346.5 966.6 346.5Q968.3 346.5 969.3 347.4Q970.3 348.2 970.4 349.8H968.5Q968.5 349 968 348.5Q967.5 348.1 966.6 348.1Q965.7 348.1 965.1 348.6Q964.6 349.1 964.6 350.1V352.5Q964.6 353.5 965.1 354Q965.7 354.6 966.6 354.6Q967.5 354.6 968 354.1Q968.5 353.7 968.5 352.9H970.4Q970.3 354.4 969.3 355.3Q968.3 356.2 966.6 356.2ZM977.4 356.2Q976.3 356.2 975.4 355.7Q974.6 355.3 974.1 354.5Q973.6 353.6 973.6 352.5V350.1Q973.6 349 974.1 348.2Q974.6 347.4 975.4 346.9Q976.3 346.5 977.4 346.5Q978.6 346.5 979.4 346.9Q980.3 347.4 980.7 348.2Q981.2 349 981.2 350.1V351.8H975.4V352.5Q975.4 353.6 975.9 354.1Q976.5 354.7 977.4 354.7Q978.2 354.7 978.7 354.4Q979.2 354.1 979.3 353.6H981.2Q981 354.8 979.9 355.5Q978.9 356.2 977.4 356.2ZM979.4 350.7V350.1Q979.4 349.1 978.9 348.5Q978.4 347.9 977.4 347.9Q976.5 347.9 975.9 348.5Q975.4 349.1 975.4 350.1V350.5L979.6 350.5ZM989.4 348.7 989.1 345.5V343.6H991.1V345.5L990.8 348.7ZM985.8 348.7 985.5 345.5V343.6H987.4V345.5L987.3 348.7ZM996.8 358.7 998.1 353.4H1000.6L998.4 358.7Z" style="fill:#6FE6FF"/><path d="M822.4 381.9V380.2H825.1V367.6H822.4V365.9H826.9V381.9ZM833.7 382.7 835 377.4H837.5L835.2 382.7ZM835.8 373.2Q835.2 373.2 834.8 372.8Q834.5 372.4 834.5 371.8Q834.5 371.2 834.8 370.9Q835.2 370.5 835.8 370.5H836.1Q836.7 370.5 837.1 370.9Q837.5 371.2 837.5 371.8Q837.5 372.4 837.1 372.8Q836.7 373.2 836.1 373.2Z" style="fill:#6FE6FF"/><rect width="1280" height="520" fill="url(#hero-dark-scan)"/></g><circle cx="150" cy="180" r="0" fill="none" stroke="#6FE6FF" stroke-width="6" stroke-opacity=".45" filter="url(#hero-dark-glow)"><animate attributeName="cx" dur="11.0s" repeatCount="indefinite" calcMode="spline" keyTimes="0.0000;0.0545;0.2909;0.4182;0.5455;0.6727;0.8545;0.9273;1.0000" values="150;150;1110;330;330;905;905;905;150" keySplines="0.45 0 0.25 1;0.45 0 0.25 1;0.45 0 0.25 1;0.45 0 0.25 1;0.45 0 0.25 1;0.45 0 0.25 1;0.45 0 0.25 1;0.45 0 0.25 1"/><animate attributeName="cy" dur="11.0s" repeatCount="indefinite" calcMode="spline" keyTimes="0.0000;0.0545;0.2909;0.4182;0.5455;0.6727;0.8545;0.9273;1.0000" values="180;180;180;290;290;300;300;300;180" keySplines="0.45 0 0.25 1;0.45 0 0.25 1;0.45 0 0.25 1;0.45 0 0.25 1;0.45 0 0.25 1;0.45 0 0.25 1;0.45 0 0.25 1;0.45 0 0.25 1"/><animate attributeName="r" dur="11.0s" repeatCount="indefinite" calcMode="spline" keyTimes="0.0000;0.0545;0.2909;0.4182;0.5455;0.6727;0.8545;0.9273;1.0000" values="0;92;92;92;92;118;118;0;0" keySplines="0.45 0 0.25 1;0.45 0 0.25 1;0.45 0 0.25 1;0.45 0 0.25 1;0.45 0 0.25 1;0.45 0 0.25 1;0.45 0 0.25 1;0.45 0 0.25 1"/></circle><circle cx="150" cy="180" r="0" fill="none" stroke="#6FE6FF" stroke-width="1.5"><animate attributeName="cx" dur="11.0s" repeatCount="indefinite" calcMode="spline" keyTimes="0.0000;0.0545;0.2909;0.4182;0.5455;0.6727;0.8545;0.9273;1.0000" values="150;150;1110;330;330;905;905;905;150" keySplines="0.45 0 0.25 1;0.45 0 0.25 1;0.45 0 0.25 1;0.45 0 0.25 1;0.45 0 0.25 1;0.45 0 0.25 1;0.45 0 0.25 1;0.45 0 0.25 1"/><animate attributeName="cy" dur="11.0s" repeatCount="indefinite" calcMode="spline" keyTimes="0.0000;0.0545;0.2909;0.4182;0.5455;0.6727;0.8545;0.9273;1.0000" values="180;180;180;290;290;300;300;300;180" keySplines="0.45 0 0.25 1;0.45 0 0.25 1;0.45 0 0.25 1;0.45 0 0.25 1;0.45 0 0.25 1;0.45 0 0.25 1;0.45 0 0.25 1;0.45 0 0.25 1"/><animate attributeName="r" dur="11.0s" repeatCount="indefinite" calcMode="spline" keyTimes="0.0000;0.0545;0.2909;0.4182;0.5455;0.6727;0.8545;0.9273;1.0000" values="0;92;92;92;92;118;118;0;0" keySplines="0.45 0 0.25 1;0.45 0 0.25 1;0.45 0 0.25 1;0.45 0 0.25 1;0.45 0 0.25 1;0.45 0 0.25 1;0.45 0 0.25 1;0.45 0 0.25 1"/></circle><g><animateTransform attributeName="transform" type="translate" dur="11.0s" repeatCount="indefinite" calcMode="spline" keyTimes="0.0000;0.0545;0.2909;0.4182;0.5455;0.6727;0.8545;0.9273;1.0000" values="150 180;150 180;1110 180;330 290;330 290;905 300;905 300;905 300;150 180" keySplines="0.45 0 0.25 1;0.45 0 0.25 1;0.45 0 0.25 1;0.45 0 0.25 1;0.45 0 0.25 1;0.45 0 0.25 1;0.45 0 0.25 1;0.45 0 0.25 1"/><g><animateTransform attributeName="transform" type="scale" dur="11.0s" repeatCount="indefinite" calcMode="spline" keyTimes="0.0000;0.0545;0.2909;0.4182;0.5455;0.6727;0.8545;0.9273;1.0000" values="0.000;1.000;1.000;1.000;1.000;1.283;1.283;0.000;0.000" keySplines="0.45 0 0.25 1;0.45 0 0.25 1;0.45 0 0.25 1;0.45 0 0.25 1;0.45 0 0.25 1;0.45 0 0.25 1;0.45 0 0.25 1;0.45 0 0.25 1"/><line x1="94" y1="0" x2="108" y2="0" stroke="#6FE6FF" stroke-width="2"/><line x1="0" y1="94" x2="0" y2="108" stroke="#6FE6FF" stroke-width="2"/><line x1="-94" y1="0" x2="-108" y2="0" stroke="#6FE6FF" stroke-width="2"/><line x1="-0" y1="-94" x2="-0" y2="-108" stroke="#6FE6FF" stroke-width="2"/><path d="M-20.1 128 -17.4 123.2 -19.9 118.5H-18.4L-17 121.1Q-16.9 121.3 -16.8 121.6Q-16.7 121.8 -16.6 122Q-16.6 121.8 -16.4 121.6Q-16.3 121.3 -16.2 121.1L-14.9 118.5H-13.3L-15.9 123.1L-13.2 128H-14.8L-16.2 125.2Q-16.4 124.9 -16.5 124.7Q-16.6 124.4 -16.7 124.3Q-16.7 124.4 -16.8 124.7Q-17 124.9 -17.1 125.2L-18.6 128ZM-10.4 124.3V123.1H-6.2V124.3ZM-2.8 128V118.5H0.2Q1.1 118.5 1.7 118.9Q2.4 119.2 2.8 119.8Q3.1 120.4 3.1 121.3Q3.1 122.2 2.6 122.9Q2.2 123.6 1.3 123.9L3.3 128H1.7L-0.1 124.1H-1.4V128ZM-1.4 122.9H0.2Q0.9 122.9 1.3 122.4Q1.7 122 1.7 121.3Q1.7 120.6 1.3 120.2Q0.9 119.8 0.2 119.8H-1.4ZM5 128 7.4 118.5H9.2L11.7 128H10.2L9.7 125.6H7L6.4 128ZM7.2 124.4H9.4L8.7 121.7Q8.6 121 8.5 120.4Q8.4 119.9 8.3 119.7Q8.3 119.9 8.2 120.4Q8.1 121 7.9 121.7ZM15.9 128V124.5L13.1 118.5H14.6L16.2 122.1Q16.4 122.4 16.5 122.8Q16.6 123.1 16.7 123.2Q16.7 123.1 16.8 122.8Q16.9 122.4 17.1 122.1L18.7 118.5H20.2L17.3 124.5V128Z" style="fill:#6FE6FF"/></g></g></g><rect x=".5" y=".5" width="1279" height="519" rx="23.5" fill="none" style="stroke:var(--stroke)"/></svg>